<svg width="18" height="18" viewBox="0 0 18 18" fill="none" xmlns="http://www.w3.org/2000/svg">
<path fill-rule="evenodd" clip-rule="evenodd" d="M6.05748 3.5302C5.16955 3.6786 4.12748 4.01957 3.48646 4.3714C2.86906 4.71031 2.50798 5.20387 2.00175 6.40102C1.33643 7.97421 0.844921 10.0211 0.739739 11.657L0.690186 12.4273L0.997859 12.782C1.428 13.2779 2.16402 13.7446 3.03013 14.0705C3.80338 14.3615 5.17169 14.6443 5.4221 14.5648C5.56409 14.5197 6.18585 13.7871 6.18585 13.6649C6.18585 13.6315 6.06064 13.5793 5.90771 13.5491C5.48064 13.4647 4.57354 13.0992 4.00347 12.7818C3.56682 12.5386 3.48997 12.4601 3.48997 12.2569C3.48997 11.9096 3.72541 11.7895 4.02392 11.9847C4.55805 12.3337 5.57966 12.7577 6.39177 12.9674C7.17896 13.1708 7.40756 13.1909 8.96732 13.194C10.3405 13.1969 10.8144 13.1661 11.3637 13.0388C12.2403 12.8355 13.2257 12.4579 13.7549 12.1223C14.0325 11.9462 14.2341 11.8748 14.3623 11.907C14.5985 11.9663 14.687 12.1717 14.5702 12.3898C14.4564 12.6026 12.8785 13.3763 12.2898 13.508C12.0393 13.564 11.8344 13.636 11.8344 13.6678C11.8344 13.7946 12.462 14.5216 12.6127 14.5695C12.8544 14.6461 14.1496 14.379 14.9631 14.0847C15.834 13.7696 16.5663 13.3102 16.9937 12.8109C17.2789 12.4777 17.3116 12.3901 17.3102 11.9626C17.3026 9.6472 15.8948 5.28903 14.9362 4.61275C14.2355 4.11859 12.9178 3.65729 11.7404 3.49408C11.2005 3.41928 11.0892 3.42647 10.9591 3.54415C10.7093 3.77026 10.7813 3.88837 11.208 3.95238C11.8076 4.04225 12.6532 4.315 13.3914 4.65657C14.053 4.96261 14.1818 5.08585 14.0902 5.32463C13.9954 5.57163 13.684 5.55083 13.0319 5.25377C10.5881 4.14058 7.1099 4.1779 4.78476 5.34243C4.25397 5.60826 3.93706 5.55785 3.97668 5.21389C3.99731 5.03527 4.10249 4.92718 4.43139 4.74677C4.93419 4.47085 6.22685 4.03865 6.80633 3.95264C7.23562 3.88888 7.31384 3.76821 7.0784 3.53268C6.92444 3.3788 6.9627 3.37889 6.05748 3.5302ZM7.50701 8.69919C7.97087 9.14885 8.05055 9.9108 7.69101 10.4595C7.48989 10.7665 6.84853 11.0462 6.49806 10.98C5.304 10.7543 5.00583 9.1741 6.03531 8.52768C6.46871 8.25553 7.12856 8.33238 7.50701 8.69919ZM11.9849 8.53282C12.8653 9.06951 12.8067 10.4338 11.8853 10.8522C11.4463 11.0516 11.281 11.0516 10.842 10.8522C9.92064 10.4338 9.86201 9.06951 10.7424 8.53282C11.1001 8.31467 11.6272 8.31467 11.9849 8.53282Z" fill="#F5F7FA"/>
</svg>
