<svg width="24" height="14" viewBox="0 0 24 14" fill="none" xmlns="http://www.w3.org/2000/svg">
<path d="M16.4735 3.57364L17.8353 5.17364C17.9912 5.35335 18.1294 5.50117 18.1853 5.58523C18.5926 5.98997 18.8209 6.53697 18.8206 7.10697C18.7824 7.77944 18.3441 8.23741 17.9382 8.72726L16.9853 9.84611L16.4882 10.4258C16.4704 10.4458 16.4589 10.4705 16.4551 10.4969C16.4514 10.5232 16.4556 10.5501 16.4672 10.5741C16.4787 10.5982 16.4972 10.6184 16.5203 10.6322C16.5434 10.646 16.5701 10.6528 16.5971 10.6519H21.5647C22.3235 10.6519 23.2794 11.2896 23.2235 12.2577C23.222 12.6977 23.0439 13.1193 22.7282 13.4304C22.4125 13.7416 21.9847 13.917 21.5382 13.9186H13.7588C13.2471 13.9186 11.8706 13.9736 11.4853 12.7997C11.4034 12.5544 11.3921 12.2915 11.4529 12.0403C11.5649 11.6688 11.7421 11.3196 11.9765 11.0084C12.3676 10.4287 12.7912 9.849 13.2088 9.28667C13.7471 8.55044 14.3 7.83741 14.8441 7.08667C14.8634 7.06223 14.8739 7.03214 14.8739 7.00117C14.8739 6.9702 14.8634 6.94011 14.8441 6.91567L12.8676 4.59682C12.8548 4.58003 12.8381 4.56638 12.8189 4.557C12.7998 4.54761 12.7787 4.54273 12.7574 4.54273C12.736 4.54273 12.7149 4.54761 12.6958 4.557C12.6766 4.56638 12.6599 4.58003 12.6471 4.59682C12.1176 5.30117 9.8 8.42003 9.30588 9.05191C8.81176 9.68379 7.59412 9.71856 6.92059 9.05191L3.82941 5.99394C3.80968 5.97441 3.78447 5.96108 3.75706 5.9557C3.72962 5.95029 3.70118 5.95305 3.67535 5.96361C3.6495 5.97417 3.62741 5.99205 3.61191 6.015C3.59641 6.03794 3.58818 6.06491 3.58824 6.09247V11.9736C3.5955 12.391 3.47012 12.8001 3.22959 13.1437C2.98909 13.4873 2.64553 13.7481 2.24706 13.8896C1.99244 13.9769 1.72035 14.003 1.45341 13.9656C1.1865 13.9283 0.93253 13.8286 0.712647 13.6748C0.492765 13.5211 0.313353 13.3178 0.189382 13.0819C0.0654412 12.846 0.0005 12.5843 0 12.3186V1.74464C0.0177353 1.36358 0.156853 0.997731 0.397618 0.699055C0.638382 0.400378 0.96853 0.184084 1.34118 0.0808783C1.66082 -0.00303933 1.99729 -0.0021982 2.3165 0.0833195C2.63571 0.168819 2.92629 0.335996 3.15882 0.567849L7.91177 5.2577C7.926 5.27194 7.94321 5.28294 7.96224 5.28988C7.98124 5.29682 8.00159 5.29958 8.0218 5.29791C8.042 5.29626 8.06159 5.29023 8.07918 5.28029C8.09677 5.27032 8.11188 5.25667 8.12353 5.24029L11.5 0.634496C11.656 0.447526 11.8516 0.296437 12.0732 0.19179C12.2947 0.087143 12.5367 0.0314961 12.7824 0.028702H21.5647C21.8051 0.0291137 22.0426 0.0800548 22.2613 0.178172C22.4801 0.27632 22.675 0.419349 22.8332 0.597702C22.9913 0.776055 23.109 0.985643 23.1784 1.21244C23.2477 1.43923 23.2671 1.678 23.2353 1.91276C23.1734 2.32003 22.9637 2.69138 22.6452 2.95788C22.3266 3.22438 21.9208 3.368 21.5029 3.36206H16.5853C16.5606 3.36264 16.5365 3.36976 16.5155 3.38264C16.4945 3.39553 16.4774 3.41373 16.466 3.43532C16.4546 3.45694 16.4493 3.48117 16.4506 3.5055C16.4519 3.52982 16.4599 3.55335 16.4735 3.57364Z" fill="#E93A88"/>
</svg>
