<svg width="18" height="18" viewBox="0 0 18 18" fill="none" xmlns="http://www.w3.org/2000/svg">
<path fill-rule="evenodd" clip-rule="evenodd" d="M15.562 6.03898C15.5684 6.17093 15.572 6.3043 15.572 6.43768C15.572 10.5093 12.1666 15.2047 5.9395 15.2047C4.02777 15.2047 2.24798 14.6941 0.75 13.82C1.0146 13.8487 1.28422 13.863 1.55743 13.863C3.14361 13.863 4.60359 13.3704 5.76167 12.5443C4.28018 12.5199 3.03031 11.6286 2.59935 10.4046C2.80587 10.4404 3.01812 10.4605 3.23611 10.4605C3.54446 10.4605 3.84348 10.4225 4.12816 10.3522C2.57927 10.069 1.41258 8.8234 1.41258 7.33116C1.41258 7.31825 1.41258 7.30535 1.41258 7.29244C1.86936 7.52334 2.39068 7.66174 2.9457 7.67823C2.03716 7.12536 1.43983 6.1824 1.43983 5.11323C1.43983 4.54889 1.60691 4.01897 1.89804 3.56434C3.56741 5.42875 6.06212 6.65496 8.87595 6.78331C8.81786 6.55815 8.78846 6.32295 8.78846 6.08129C8.78846 4.37966 10.3044 3 12.1738 3C13.1476 3 14.0274 3.37432 14.6449 3.97308C15.4157 3.83468 16.1407 3.57797 16.7947 3.22516C16.5422 3.94439 16.0051 4.54818 15.306 4.92966C15.9908 4.85509 16.6434 4.68944 17.25 4.4442C16.7975 5.06232 16.2239 5.60515 15.562 6.03898Z" fill="#F5F7FA"/>
</svg>
