<svg width="150" height="38" viewBox="0 0 150 38" fill="none" xmlns="http://www.w3.org/2000/svg">
<g clip-path="url(#clip0_402_2)">
<path d="M28.9016 27.6435L28.221 28.6759C27.9968 29.0162 27.6738 29.2793 27.2948 29.4299L26.9015 29.5862C26.2672 29.8388 25.5982 29.9935 24.9172 30.0451L24.716 30.0602C24.5996 30.0687 24.5033 30.1546 24.4802 30.2692L24.0906 32.2342C24.0521 32.4281 23.9102 32.5849 23.7213 32.6428L22.235 33.0976C22.0883 33.1427 21.9547 33.222 21.8451 33.3295L20.3979 34.7508C20.3021 34.845 20.157 34.8674 20.0371 34.8074L15.951 32.7531C14.422 31.9843 13.1717 30.7567 12.3762 29.2413L10.9308 26.4891C10.8786 26.3901 10.7285 26.4389 10.7443 26.5491L10.7601 26.663C10.7614 26.6701 10.7631 26.6772 10.7656 26.6844L11.6778 29.1099C12.3952 31.0162 13.8109 32.5778 15.6377 33.4776L18.8966 35.082L24.3729 37.2686C24.6361 37.3733 24.9338 37.3417 25.1687 37.1831L25.7073 36.8191C25.8574 36.718 25.9434 36.5456 25.9338 36.3646C25.9219 36.1273 25.9358 35.8897 25.9768 35.6564L26.3404 33.5766L26.6213 32.8237C26.659 32.7228 26.5817 32.6158 26.4738 32.6199L26.3614 32.624C26.3161 32.6259 26.2744 32.6472 26.2475 32.683L25.6523 33.4583L24.9831 32.7685C24.8973 32.68 24.8629 32.5541 24.892 32.4345L25.2661 30.8961C25.2895 30.8001 25.3642 30.7251 25.4609 30.702C25.6385 30.6594 25.9432 30.5826 26.2462 30.5053C26.8526 30.3502 27.4362 30.1175 27.9828 29.8131C28.1895 29.6981 28.3592 29.5274 28.4735 29.3206L29.0621 28.2557C29.141 28.1136 29.1559 27.9445 29.1027 27.7905L29.0594 27.6646C29.0353 27.5931 28.9399 27.5814 28.8982 27.644L28.9016 27.6435ZM20.8778 34.9706L21.9196 33.7409C21.9657 33.6866 22.0484 33.6841 22.0981 33.7352L24.6562 36.3911C24.7364 36.4743 24.6496 36.6087 24.5404 36.5702L20.9645 35.2937C20.8309 35.2458 20.7862 35.079 20.8778 34.9706ZM25.105 35.2073L25.0385 36.1487C25.0351 36.1959 24.9768 36.2163 24.945 36.181L22.6736 33.6593C22.6145 33.5938 22.6438 33.4895 22.7282 33.4638L23.7699 33.1494C23.8912 33.1131 24.0216 33.1654 24.0839 33.2763L25.0651 35.0263C25.096 35.0811 25.1091 35.1446 25.105 35.2073Z" fill="white"/>
<path d="M16.9872 31.2834L17.8731 30.93C17.9239 30.91 17.9313 30.841 17.8866 30.8099L17.4454 30.506C17.4262 30.4929 17.4023 30.4906 17.3808 30.4993L16.5449 30.8374C16.4968 30.8568 16.4874 30.9206 16.5277 30.9534L16.9189 31.2728C16.938 31.2886 16.9645 31.2921 16.9872 31.2834Z" fill="white"/>
<path d="M16.0233 30.6222L16.4349 30.4489C16.4785 30.4303 16.4872 30.3723 16.4501 30.342L14.7939 29.004C14.7748 28.9889 14.749 28.9859 14.7269 28.9966L14.3305 29.1869C14.2889 29.2069 14.2823 29.2637 14.3187 29.2928L15.9596 30.6143C15.9773 30.6286 16.0018 30.6316 16.0233 30.6222Z" fill="white"/>
<path d="M13.9617 28.8641L15.1436 28.3418C15.1987 28.3175 15.2191 28.2499 15.187 28.1992L14.977 27.8664C14.9511 27.8254 14.8989 27.8091 14.854 27.8284L13.6855 28.3347C13.6316 28.3578 13.6099 28.4227 13.6388 28.4734L13.835 28.822C13.8602 28.8664 13.9149 28.8846 13.9617 28.8641Z" fill="white"/>
<path d="M13.7128 27.5608L14.1721 27.1946C14.2276 27.1505 14.248 27.0401 14.218 26.9502L12.5224 21.8652C12.4378 21.6112 12.3056 21.4061 12.1449 21.2792L11.3445 20.6497C11.2599 20.5826 11.1753 20.7286 11.2226 20.8616L13.5677 27.4858C13.5975 27.5695 13.661 27.6023 13.7128 27.5608Z" fill="white"/>
<path d="M14.7246 25.2115L14.5103 25.4964C14.4792 25.5379 14.4751 25.5939 14.5003 25.639L15.5271 27.4937C16.007 28.3603 16.655 29.1215 17.434 29.7334L18.6572 30.6945C19.1993 31.1201 19.7961 31.4703 20.4322 31.7345L21.5743 32.2092C21.7084 32.2647 21.8612 32.2509 21.9832 32.1714L22.5215 31.8198C22.5802 31.7813 22.5718 31.6926 22.5071 31.6663L20.7947 30.9653C20.2534 30.7439 19.7397 30.4602 19.2641 30.1203L18.0428 29.2491C17.1819 28.6353 16.4626 27.8439 15.9318 26.9289L14.944 25.2239C14.8968 25.1423 14.7814 25.1361 14.7246 25.2115Z" fill="white"/>
<path d="M23.8059 30.5275L23.7422 30.9426C23.7342 30.996 23.689 31.0367 23.6347 31.0391C22.7885 31.0792 21.9453 30.9127 21.1776 30.5541L20.4994 30.2377C19.9189 29.9666 19.3683 29.6333 18.8593 29.2444L18.121 28.6808C17.3833 28.1174 16.7681 27.4095 16.3127 26.601C15.6407 25.4072 15.1291 24.1307 14.7901 22.803L14.4412 21.4367C14.4204 21.3556 14.4644 21.2715 14.543 21.2424L14.9874 21.0773C15.0959 21.037 15.2159 21.095 15.2522 21.2046L16.6367 25.39C16.6705 25.4933 16.7573 25.5715 16.8636 25.5951L18.8832 26.0436C19.4525 26.1699 20.0481 26.0833 20.557 25.7989L21.4419 25.3052L22.2187 24.85C22.5787 24.6389 22.8714 24.3308 23.0637 23.9609L23.1362 23.8206C23.2081 23.6827 23.3649 23.6114 23.5162 23.648L24.1412 23.8002C24.1811 23.8099 24.2232 23.8014 24.2558 23.776C24.3873 23.676 24.5778 23.7209 24.6505 23.8694L24.7946 24.1628C24.9368 24.4525 25.1508 24.7019 25.4162 24.8862L25.6296 25.0347C25.9532 25.2593 26.3269 25.3993 26.7185 25.4427C27.0772 25.4817 27.4396 25.4388 27.7786 25.3153C28.2833 25.1324 28.9771 24.8807 28.9771 24.8807L29.2739 24.7443C29.3623 24.7037 29.4607 24.7762 29.4476 24.8729L29.4185 25.0909C29.328 25.7684 29.121 26.425 28.8063 27.032L28.7497 27.141C28.5874 27.4532 28.3706 27.7335 28.1093 27.9691L27.6305 28.4C27.4137 28.5949 27.16 28.7448 26.884 28.8401L26.697 28.9052C26.636 28.9261 26.57 28.893 26.5501 28.8319L26.2844 28.0042C26.1437 27.5653 25.9173 27.1587 25.6182 26.808L25.308 26.4434L24.9407 26.1142C24.8694 26.0505 24.7628 26.0443 24.6851 26.1005L23.2913 27.1034L22.9083 27.3574C22.8893 27.37 22.8648 27.3709 22.8449 27.3595L22.7046 27.2806C22.672 27.262 22.6635 27.2187 22.6872 27.1892L22.9228 26.902C23.1302 26.6487 23.3676 26.4218 23.6301 26.2261L24.4071 25.646C24.5045 25.5733 24.5522 25.4519 24.5295 25.3327L24.3711 24.4872C24.3436 24.3421 24.2381 24.2242 24.0972 24.1819L23.7108 24.065C23.633 24.0413 23.5498 24.0787 23.5157 24.1525C23.3413 24.5264 23.0626 24.8413 22.7131 25.0602L21.8254 25.6153L20.6092 26.2733C20.1162 26.5398 19.5451 26.6235 18.9964 26.5098L16.9207 26.0805C17.3638 26.8986 17.9693 27.6171 18.7002 28.1928L18.9938 28.4241C19.6202 28.9174 20.3097 29.3251 21.0442 29.6354L21.8407 29.9724C22.2984 30.1662 22.7816 30.293 23.2757 30.3501L23.7059 30.4C23.7703 30.4074 23.8153 30.4669 23.8052 30.5307L23.8059 30.5275Z" fill="white"/>
<path d="M16.778 23.0386C16.9197 23.5234 17.2365 23.9378 17.6667 24.2021L19.2279 25.1626C19.6687 25.434 20.2257 25.4322 20.6646 25.1578L21.0311 24.9288C21.45 24.6676 21.8009 24.3112 22.0554 23.8881L22.2119 23.6283C22.3166 23.4541 22.3437 23.2445 22.2866 23.0492L22.2078 22.7812C22.1974 22.7448 22.1837 22.7092 22.1675 22.6753L21.877 22.0616C21.6467 21.5756 21.2703 21.1745 20.7994 20.914L20.2914 20.633C19.8929 20.4125 19.4301 20.3371 18.9818 20.4187L16.7709 20.8227C16.6607 20.8429 16.6204 20.9799 16.7033 21.0561L16.7702 21.1179C16.7962 21.1415 16.8303 21.155 16.8652 21.1535L18.8119 21.1062C19.3884 21.0923 19.9536 21.2676 20.4207 21.6054L20.9305 21.9744L21.4828 22.4988C21.549 22.5619 21.5695 22.6597 21.5339 22.7445C21.489 22.8504 21.3707 22.9036 21.2614 22.867L20.8583 22.7317L20.7459 22.7397C20.103 22.7847 19.4576 22.7013 18.847 22.4931L18.0616 22.2254C17.9916 22.2018 17.9146 22.2123 17.8532 22.2539L17.4673 22.5161C17.4288 22.5428 17.4242 22.5976 17.4585 22.6297L17.886 23.0329C17.9298 23.0742 17.8906 23.1466 17.8328 23.1328L16.8922 22.9176C16.8207 22.9011 16.7571 22.9678 16.778 23.0386Z" fill="white"/>
<path d="M17.1763 22.0384L16.9532 22.2262C16.931 22.2452 16.898 22.2449 16.8756 22.2257L16.2081 21.6548C16.1832 21.6339 16.1694 21.6032 16.1699 21.5709L16.1703 21.5484C16.1715 21.4657 16.2615 21.4148 16.3331 21.456L17.1682 21.9401C17.204 21.9607 17.2084 22.0117 17.1763 22.0384Z" fill="white"/>
<path d="M18.6275 21.3952L19.3296 21.3613L19.3073 21.6019C19.2995 21.6858 19.3273 21.7695 19.3844 21.8318C19.462 21.9169 19.5964 21.9164 19.674 21.8304L19.8718 21.6092L20.3853 21.9466L20.1675 22.1726C20.0586 22.2852 19.911 22.3528 19.7538 22.3601L19.5365 22.3709C19.4015 22.3773 19.2675 22.3397 19.1563 22.2632L18.9857 22.1456C18.7964 22.0149 18.6729 21.8087 18.6474 21.5802L18.6275 21.3952Z" fill="white"/>
<path d="M25.099 22.8953L24.9954 23.3755C24.9601 23.5385 24.9924 23.7088 25.0846 23.8479L25.2943 24.1637C25.394 24.3145 25.5292 24.4387 25.688 24.5258C26.2441 24.8312 26.8725 24.981 27.5065 24.9602L27.562 24.9584C27.7703 24.9513 27.975 24.9093 28.1687 24.8339L29.2468 24.4124C29.3495 24.3725 29.4162 24.2733 29.416 24.1635L29.4132 23.1486L29.3756 22.6059C29.3657 22.458 29.3802 22.3083 29.4205 22.1655C29.4655 22.004 29.3907 21.8323 29.2418 21.7551L29.1977 21.7324L28.7973 22.0624L28.9704 22.4842L28.3594 22.4317L27.2965 22.8355L26.2044 22.8486L25.7557 22.8289C25.6731 22.825 25.5956 22.8685 25.5551 22.9409C25.5212 23.0017 25.4433 23.0225 25.3832 22.9866L25.1758 22.8616C25.1457 22.8429 25.1066 22.8605 25.099 22.8953Z" fill="white"/>
<path d="M25.1946 22.3297L25.3356 22.4067C25.3793 22.4306 25.4343 22.4166 25.4614 22.3751C25.6943 22.0162 26.0044 21.7134 26.369 21.4895C26.3858 21.4794 26.4029 21.4688 26.4199 21.4586C26.725 21.2713 27.061 21.1402 27.4123 21.0719L27.4304 21.0682C27.8872 20.979 28.3551 20.9641 28.816 21.0233C29.0348 21.0512 29.2507 21.0797 29.3777 21.0964C29.4403 21.1046 29.4958 21.0588 29.5013 20.9963L29.5414 20.4858L29.5991 19.5378L29.6525 18.2225C29.662 17.9836 29.5395 17.759 29.3339 17.6369L29.3287 17.6335C28.7415 17.2874 28.0651 17.1235 27.3849 17.1617L27.3454 17.1636C26.8682 17.1906 26.4078 17.351 26.0172 17.6273C25.6633 17.8778 25.3626 18.197 25.1341 18.5656C25.0195 18.7499 25.0071 18.9804 25.1016 19.1762C25.1662 19.3103 25.1845 19.4624 25.1525 19.6085L25.0213 20.2183C25.0053 20.2931 25.0505 20.3675 25.124 20.3866C25.1955 20.4058 25.2689 20.3675 25.2946 20.2981L25.2993 20.2851C25.5182 19.6962 25.9288 19.1979 26.4667 18.8732C26.5013 18.8525 26.5345 18.8322 26.5652 18.8134C26.7119 18.7219 26.8776 18.6669 27.0497 18.6527L27.6317 18.6034C27.7742 18.5913 27.9099 18.6651 27.9766 18.7914L27.9979 18.8324C28.0505 18.9314 28.0048 19.0549 27.9008 19.0959L27.1117 19.407C26.7875 19.5351 26.4914 19.7258 26.2414 19.9687C25.9005 20.2995 25.6342 20.6992 25.4607 21.1418L25.4291 21.2232C25.3122 21.522 25.223 21.8307 25.1639 22.1457L25.1485 22.2275C25.1407 22.2681 25.16 22.3098 25.1965 22.3297H25.1946Z" fill="white"/>
<path d="M28.4062 18.4844L28.6574 18.963L29.2416 18.864L28.9235 18.4922L28.4062 18.4844Z" fill="white"/>
<path d="M24.1199 12.3145L22.4346 15.331L24.1342 17.083L25.736 15.3164L24.1199 12.3145ZM22.8887 15.2513L24.1012 13.0345L25.3269 15.2456L24.1399 16.5334L22.8887 15.2513Z" fill="white"/>
<path d="M17.2852 17.7122L17.6449 18.1926L18.4652 18.1617L19.3914 18.2623L18.952 18.7732L19.4468 18.8673L19.7783 18.354L21.2529 19.2616L22.6126 20.6407L22.8717 20.6446L22.8851 19.7605L22.3889 18.351L20.9116 17.5735L18.9736 17.3496L17.2852 17.7122Z" fill="white"/>
<path d="M13.1795 18.8307L13.2279 18.7881C13.2831 18.7399 13.3698 18.7631 13.394 18.8319L13.807 20.0223C13.8217 20.0652 13.8777 20.0771 13.9081 20.0432L14.2602 19.6553C14.2989 19.6125 14.3134 19.5527 14.2987 19.4961L13.7014 17.268C13.6892 17.2226 13.7112 17.1752 13.7534 17.1545L14.1694 17.0354C14.9052 16.8147 15.3033 16.6423 16.1445 16.4645L16.9897 16.2822C17.3557 16.2258 17.8934 16.13 18.2004 16.1101L18.9095 16.0917C19.348 16.0984 19.8181 16.1087 20.2476 16.1999C20.5253 16.2589 20.8485 16.3278 21.1274 16.3895C21.6056 16.4951 22.0541 16.7085 22.4371 17.0141L23.4545 17.8261L24.1041 18.3973C24.1444 18.4328 24.2058 18.4266 24.2381 18.3838L25.1689 17.1615L25.4838 16.88C25.9986 16.4202 26.6677 16.1699 27.3583 16.1803L27.7128 16.1857C27.7955 16.1869 27.9315 16.2135 27.9991 16.2236C28.1467 16.2446 28.2161 16.2774 28.3679 16.3132C28.7426 16.4016 29.0575 16.5066 29.3992 16.6836L29.0346 12.7404C29.0146 12.5224 28.8941 12.3262 28.7092 12.2089C27.9209 11.7106 27.0722 11.3127 26.1843 11.026L26.1226 11.0063C25.4676 10.7948 24.7969 10.6361 24.1162 10.5307L23.4749 10.4319C22.8723 10.3388 22.2631 10.2887 21.6533 10.2809L21.2852 10.2765C20.5437 10.2673 19.8025 10.3199 19.0702 10.4335L18.5591 10.513C18.1305 10.5795 17.7126 10.7017 17.3159 10.8759C16.7039 11.1452 16.1697 11.5628 15.7605 12.0909L15.4417 12.5027C15.1662 12.8584 14.9265 13.2398 14.7261 13.6425L12.623 18.1651C12.5703 18.2703 12.4387 18.3077 12.3388 18.2448L11.8006 17.9052C11.7142 17.8509 11.6829 17.74 11.7282 17.6483L13.7576 13.2499C13.9464 12.869 14.1696 12.506 14.4254 12.1663L14.844 11.6093C15.4018 10.867 16.13 10.2694 16.9663 9.86669C17.2746 9.71838 17.6044 9.61922 17.9429 9.57274L19.0097 9.42741C19.7575 9.32505 20.5127 9.28675 21.2675 9.3124L21.5226 9.32079C22.1483 9.3419 22.772 9.40822 23.388 9.51897L24.1572 9.65718C24.9477 9.7991 25.7236 10.015 26.4745 10.301L26.5258 10.3205C27.3101 10.6192 28.0575 11.0052 28.7547 11.4725L29.1229 11.7198C29.1882 11.7634 29.2482 11.8152 29.3016 11.8736C29.4426 12.0295 29.5288 12.2272 29.5476 12.4361L29.9562 17.1042C29.9677 17.2387 29.8549 17.3507 29.7201 17.3377L29.5242 17.2165C29.1588 16.99 28.6005 16.7464 28.1778 16.665L28.0876 16.6442C27.8199 16.5827 27.5471 16.5495 27.272 16.5454C26.6209 16.5355 25.9966 16.8039 25.556 17.2824L25.2492 17.615L24.5168 18.5353C24.4713 18.5928 24.4791 18.6757 24.5347 18.723C24.5959 18.7757 24.6003 18.8694 24.5432 18.9272L24.4297 19.0425C24.3798 19.0934 24.2989 19.0986 24.2429 19.0539L22.3564 17.5556C21.8974 17.1913 21.348 16.9595 20.8444 16.813L20.1591 16.6707C19.7472 16.6089 19.2324 16.6077 18.866 16.6143L17.9374 16.6733C17.4004 16.7303 16.9297 16.8369 16.4468 16.935L16.4424 16.9348C16.2421 16.9763 16.0449 17.0322 15.8525 17.1023L14.5215 17.5866C14.5118 17.6324 14.4985 17.6554 14.504 17.6781L14.9542 19.5611C14.9773 19.6583 14.9524 19.7613 14.8866 19.8371L14.0158 20.8208C13.9696 20.8738 13.8847 20.8582 13.8598 20.7933L13.152 18.9432C13.1364 18.9029 13.1481 18.8566 13.1809 18.828L13.1795 18.8307Z" fill="white"/>
<path d="M25.8921 22.4234C25.8317 22.3986 25.816 22.3209 25.8626 22.2749C26.0022 22.1381 26.2454 21.9034 26.276 21.904C26.2946 21.9043 26.3737 21.9701 26.4585 22.0443C26.6102 22.1784 26.8108 22.2428 27.012 22.2233H27.0139C27.2158 22.2031 27.4101 22.1349 27.5804 22.0232C27.7017 21.9437 27.7819 21.8144 27.7989 21.67L27.8381 21.3379L28.7191 21.4028C28.7732 21.4069 28.8145 21.4521 28.8137 21.5064C28.8133 21.5368 28.7993 21.565 28.7764 21.5839L28.4727 21.9269C28.3634 22.0164 28.1582 22.1761 28.0288 22.2316L27.5674 22.4534C27.4477 22.5045 27.0363 22.579 26.9064 22.5809L26.6041 22.5763C26.3659 22.5728 26.0732 22.4979 25.8921 22.4234Z" fill="white"/>
<path d="M9.95719 15.6202L10.2802 15.9963C10.3182 16.0412 10.3732 16.0458 10.4147 16.0089L11.5653 14.9805C11.8043 14.7672 12.0282 14.5247 12.2355 14.256C12.5504 13.8483 12.8233 13.3842 13.0479 12.8756L13.4232 12.0234C13.4371 11.9922 13.4365 11.953 13.4227 11.9221L13.2934 11.6361C13.2694 11.5822 13.215 11.5741 13.1832 11.6188L12.2983 12.8661C12.1669 13.0513 12.0267 13.2271 11.8802 13.3894L10.7855 14.6046C10.6549 14.7499 10.5183 14.8856 10.3769 15.0106L9.96908 15.3717C9.90593 15.4274 9.90025 15.5517 9.9579 15.6193L9.95719 15.6202Z" fill="white"/>
<path d="M7.9914 19.5723L8.30256 19.9165C8.33893 19.9575 8.40119 19.974 8.45459 19.9577L9.93357 19.501C10.2408 19.4065 10.5353 19.2876 10.8149 19.1459C11.2394 18.9312 11.6471 18.6976 12.0769 18.4686L12.5346 18.2763C12.5552 18.2573 12.5486 18.1028 12.5376 18.0774L12.4372 17.5362C12.4182 17.4922 11.9675 17.1684 11.924 17.1927L11.4042 17.9229C11.2245 18.0233 10.7372 18.3648 10.5437 18.4453L9.09944 19.048C8.927 19.12 8.74925 19.1838 8.56777 19.2392L8.04409 19.3983C7.96284 19.423 7.93694 19.5099 7.99229 19.5718L7.9914 19.5723Z" fill="white"/>
<path d="M10.0229 12.3894L11.4536 11.8498C11.5029 11.8311 11.551 11.8093 11.5973 11.7847L12.4063 11.3513C12.4728 11.3154 12.5374 11.275 12.5975 11.2294L12.9567 10.9617C12.9986 10.9307 12.9801 10.865 12.9287 10.8597L11.7882 10.7385C11.6974 10.7288 11.6064 10.7227 11.5146 10.7201L7.81301 10.6227L5.18397 10.6016C5.10323 10.6003 5.08278 10.713 5.15858 10.7414L6.65938 11.2957L9.44935 12.2445L9.73798 12.38C9.82721 12.422 9.92993 12.4256 10.0222 12.3908L10.0229 12.3894Z" fill="white"/>
<path d="M7.69795 14.3701L8.70079 13.9092C8.73538 13.8933 8.76891 13.8757 8.80067 13.8566L9.35681 13.5207C9.40241 13.4931 9.4464 13.4629 9.4865 13.4301L9.72723 13.2367C9.75525 13.2144 9.73627 13.1776 9.69795 13.1798L8.85194 13.2238C8.78435 13.2271 8.71729 13.2328 8.64988 13.2404L5.92867 13.5568L4.00009 13.8095C3.94082 13.817 3.93539 13.8851 3.99334 13.894L5.14022 14.0678L7.26545 14.343L7.48844 14.3934C7.55745 14.409 7.63338 14.3997 7.69795 14.3701Z" fill="white"/>
<path d="M7.9504 17.8088L8.40543 17.0726C8.42104 17.0472 8.43505 17.0208 8.44747 16.994L8.66106 16.5223C8.67845 16.4834 8.69353 16.4433 8.70488 16.4025L8.77407 16.1604C8.78223 16.1324 8.75171 16.1105 8.72688 16.1265L8.17623 16.4753C8.13241 16.5031 8.08966 16.5326 8.04779 16.5638L6.36178 17.824L5.18057 18.7401C5.14409 18.768 5.17338 18.8239 5.21686 18.8093L6.07587 18.5205L7.64492 17.948L7.82001 17.9049C7.87412 17.8916 7.92095 17.8561 7.9504 17.8088Z" fill="white"/>
<path d="M7.01216 9.42688L7.63501 9.29484C7.869 9.2454 8.106 9.21281 8.34461 9.19835L8.82962 9.16887C9.21298 9.14561 9.59652 9.20699 9.95344 9.34742L10.4557 9.54554C10.5314 9.57588 10.5208 9.68622 10.4404 9.70112C9.97988 9.78592 9.50924 9.7994 9.04498 9.74068L8.19577 9.63353L7.01677 9.50964C6.96905 9.50439 6.9655 9.43651 7.01216 9.42688Z" fill="white"/>
<path d="M4.26146 15.8561C4.35969 15.8739 4.41745 15.9769 4.38201 16.0697L3.48051 18.4377L3.03251 19.9095C3.00334 20.0048 2.98239 20.1018 2.96884 20.2003L2.89893 20.7089C2.89009 20.7753 2.97175 20.8132 3.01695 20.7637L4.01034 19.6557C4.07431 19.584 4.19017 19.5973 4.23613 19.6814C4.29066 19.7804 4.31419 19.8932 4.30391 20.0053L4.27294 22.1476L4.31396 25.4421L4.39137 26.4387C4.39694 26.5113 4.49774 26.5234 4.52054 26.4545L4.94566 25.1698C4.99242 25.0289 5.04612 24.8902 5.10777 24.7549L5.36342 24.189C5.39799 24.1125 5.49322 24.0836 5.56438 24.1288C5.61916 24.1632 5.64302 24.2314 5.62141 24.2922L5.24853 25.358L4.61759 27.2915C4.60058 27.344 4.5781 27.3948 4.55084 27.4432L4.46054 27.603C4.36152 27.7785 4.10407 27.7669 4.02196 27.5821L3.8572 24.2638L3.78648 20.5883C3.7853 20.5381 3.72437 20.5138 3.68949 20.5505L3.02268 21.2436C2.91118 21.3591 2.84775 21.5125 2.84446 21.6731L2.80503 23.5608C2.80439 23.5925 2.78979 23.622 2.76455 23.6411C2.70373 23.6874 2.61487 23.6536 2.60024 23.5787L1.88711 19.8817C1.85406 19.7093 1.88658 19.5311 1.97838 19.3814L4.09811 15.9278C4.13296 15.8716 4.19797 15.8423 4.26302 15.8542L4.26146 15.8561Z" fill="white"/>
<path d="M2.54048 17.1977L2.70924 16.9705C2.76149 16.8995 2.78735 16.8122 2.78089 16.7244L2.59631 14.1028C2.59044 14.0219 2.62214 13.9428 2.68181 13.8878L4.58045 12.1365C4.61203 12.1078 4.58047 12.0567 4.54008 12.0719L3.0962 12.6215C3.03245 12.6456 2.96826 12.5857 2.98921 12.5202L3.71409 10.2312C3.74189 10.1434 3.62468 10.0842 3.5708 10.1594L1.63129 12.8489L0.2836 14.9687C0.0934272 15.2672 -0.00487023 15.6148 0.000185664 15.9689L0.0208708 17.406C0.0227335 17.5601 0.0309641 17.7147 0.044553 17.8681L0.199902 19.6332C0.208134 19.7294 0.317376 19.7805 0.396638 19.7253C0.432296 19.701 0.455181 19.6616 0.459474 19.6183L0.807905 15.9545C0.817644 15.8502 0.862686 15.7517 0.935136 15.6754L2.03753 14.5184C2.06819 14.4865 2.12173 14.5046 2.12677 14.5486L2.41884 17.1644C2.42549 17.2261 2.5036 17.2469 2.54048 17.1977Z" fill="white"/>
<path d="M0.930606 9.41188L2.02186 8.55239C2.31021 8.32548 3.13769 7.90519 3.61648 7.72961L4.8221 7.29631L5.2804 7.15145C5.53293 7.07128 5.75744 6.92028 5.92721 6.71677L6.4201 6.12537C6.47403 6.06094 6.41407 5.96505 6.33247 5.98513L5.1162 6.26323C4.99363 6.29369 4.34646 6.49706 4.22882 6.54307L3.13946 6.97815C2.97179 7.04409 2.69611 7.20272 2.53907 7.29207L1.95126 7.62685C1.69385 7.77347 1.48636 7.99385 1.35699 8.26064L0.833586 9.33418C0.80357 9.39575 0.876996 9.45434 0.930606 9.41188Z" fill="white"/>
<path d="M3.34578 4.47904C3.30206 4.50617 3.32688 4.57374 3.37803 4.56675L4.59068 4.30927C5.00289 4.22185 5.42228 4.17136 5.84367 4.15901L7.09828 4.12247C7.15061 4.11745 7.15877 4.04392 7.10875 4.02767L5.26682 3.43058C5.15946 3.396 5.0423 3.41039 4.94644 3.47029L3.34578 4.47904Z" fill="white"/>
<path d="M7.72618 27.3498C7.77159 27.3741 7.81754 27.3189 7.78596 27.2781L6.9568 26.3567C6.67491 26.0434 6.4214 25.7054 6.20008 25.3466L5.54116 24.2784C5.51062 24.2355 5.44283 24.2651 5.45383 24.3167L5.85766 26.2103C5.8814 26.3207 5.95243 26.4149 6.05225 26.4679L7.72618 27.3498Z" fill="white"/>
<path d="M8.25306 3.54825L8.94013 4.41531C8.9788 4.4637 8.95964 4.53578 8.90252 4.55946L8.29209 4.80732C8.23035 4.83223 8.23674 4.92212 8.30184 4.93796L9.95716 5.34359C10.4053 5.4531 10.9105 5.61385 11.3856 5.8097L12.3414 6.21247C12.6662 6.34918 12.9811 6.509 13.2832 6.68994L15.0202 7.73249L16.4656 8.61557C16.6845 8.7494 16.8921 8.89983 17.0879 9.06561C17.1314 9.10244 17.1885 9.11881 17.2449 9.10934L17.7986 9.02082C17.8887 9.00668 17.9221 8.89477 17.8552 8.83304L16.74 7.81154C16.1908 7.30834 15.5994 6.85297 14.9724 6.45003L13.3006 5.37681C12.568 4.90638 11.7764 4.53517 10.9463 4.27259L8.32508 3.44275C8.2621 3.42306 8.21261 3.49661 8.25306 3.54825Z" fill="white"/>
<path d="M15.6927 5.90065L16.4335 6.2995C16.6024 6.40608 16.8543 6.57722 17.0361 6.7376L17.3006 7.01035C17.6547 7.35554 17.9233 7.79246 18.23 8.26484L18.5078 8.69221C18.5559 8.76012 18.6354 8.79879 18.7182 8.79489L19.8688 8.74642C19.9664 8.7421 20.0198 8.63115 19.9629 8.5521L19.2776 7.60496C18.9105 7.09744 18.4658 6.65073 17.9597 6.28064C17.7872 6.15463 17.5405 6.02621 17.3047 5.93542C17.0015 5.81841 16.6843 5.77226 16.2859 5.72745C16.0943 5.70581 15.9034 5.68225 15.7179 5.73565L15.712 5.73749C15.6348 5.75958 15.6228 5.86341 15.6927 5.90065Z" fill="white"/>
<path d="M10.1216 25.9875L9.72267 25.0718C9.64018 24.8552 9.52398 24.5263 9.46065 24.2708L9.39005 23.8797C9.28485 23.3659 9.30152 22.89 9.30578 22.3594L9.30951 21.8791C9.30684 21.7991 9.26179 21.7028 9.19047 21.6244L8.20164 20.5309C8.11773 20.4381 8.01183 20.441 8.01573 20.5352L8.06576 21.6672C8.09237 22.2735 8.21761 22.9253 8.43617 23.599C8.51085 23.8286 8.64639 24.1314 8.79327 24.4051C8.98203 24.7571 9.22169 25.0878 9.53019 25.4969C9.67832 25.6936 9.82503 25.8905 10.0095 26.0445L10.0156 26.0491C10.0922 26.1133 10.1593 26.0737 10.1216 25.9875Z" fill="white"/>
<path d="M11.6514 3.39756C11.5661 3.4531 11.5828 3.58322 11.6798 3.61441L13.8636 4.32713L15.9709 5.05809C15.9959 5.06687 16.0231 5.06599 16.0477 5.05667C16.1278 5.02623 16.1455 4.92055 16.0791 4.86593L15.6956 4.54743C15.468 4.35857 15.2218 4.19268 14.9603 4.05369L14.9589 4.05367C14.2047 3.65074 13.3683 3.42551 12.5134 3.39511L11.7373 3.3672C11.7126 3.36683 11.688 3.37292 11.6672 3.38617L11.6514 3.39626V3.39756Z" fill="white"/>
<path d="M7.77176 15.43C7.79252 15.3717 7.73752 15.2981 7.67987 15.3075L6.37899 15.5116L5.10803 15.6828C5.09288 15.6848 5.08023 15.6933 5.07181 15.7061C5.04463 15.7476 5.07433 15.8166 5.12577 15.8303L5.42407 15.9112C5.60115 15.9589 5.77873 15.9876 5.95387 15.9954C6.4598 16.0195 6.94153 15.912 7.3609 15.6819L7.74178 15.4733C7.75366 15.4664 7.76324 15.4556 7.76839 15.4414L7.77176 15.43Z" fill="white"/>
<path d="M7.17432 24.4133C7.24847 24.4626 7.32582 24.4017 7.30293 24.3114L6.79486 22.279L6.33291 20.302C6.32741 20.2786 6.31464 20.2568 6.29761 20.2401C6.24226 20.1864 6.16539 20.2103 6.15934 20.2839L6.1225 20.7111C6.10082 20.9646 6.10235 21.2249 6.12821 21.4878L6.12876 21.4888C6.20206 22.2477 6.42782 23.0088 6.78883 23.7141L7.11631 24.3547C7.12695 24.3748 7.14185 24.3925 7.15977 24.4047L7.17343 24.4138L7.17432 24.4133Z" fill="white"/>
<path d="M7.79495 1.73496L9.53169 1.0849C9.62855 1.04825 9.73694 1.05699 9.82724 1.1081L11.4402 2.02022C11.5234 2.06734 11.4834 2.194 11.3878 2.18481L7.80772 1.83789C7.75148 1.83251 7.74227 1.75419 7.79495 1.73496Z" fill="white"/>
<path d="M5.85256 8.40399C6.17108 8.23246 6.78522 7.90517 7.2053 7.68156C7.48861 7.53081 7.7038 7.27759 7.80651 6.97356C7.83028 6.9035 7.90639 6.8659 7.97646 6.89022L9.91739 7.55664C10.2695 7.67761 10.613 7.82171 10.9465 7.98763L13.1015 9.06235L14.1688 9.60701C14.2438 9.64497 14.2591 9.74591 14.1988 9.80445L14.0506 9.94832C14.0159 9.98203 13.9641 9.99214 13.9192 9.97405L11.6352 9.04594C11.1505 8.84866 10.6435 8.71112 10.1258 8.63544L8.88244 8.4538C8.36674 8.37814 7.84501 8.35925 7.32505 8.39725L5.87951 8.50195C5.82453 8.50564 5.80241 8.43166 5.85125 8.4059L5.85256 8.40399Z" fill="white"/>
<path d="M11.1594 1.21095C11.6879 1.51486 12.6067 2.05465 13.2593 2.43859C13.7612 2.73434 14.3058 2.95062 14.8744 3.0794C15.5123 3.22345 16.1183 3.48394 16.6625 3.84687L18.5084 5.07841C18.5384 5.09824 18.5751 5.10527 18.6107 5.09677L18.7184 5.07126C18.8071 5.05065 18.8476 4.94724 18.797 4.87155L18.1527 3.90951C17.8935 3.52313 17.5889 3.1703 17.2434 2.85884L16.8259 2.48169C16.4232 2.11768 15.9249 1.87496 15.3895 1.78222L11.2148 1.05997C11.1252 1.04441 11.0807 1.16584 11.1594 1.21095Z" fill="white"/>
<path d="M17.6327 1.05342L20.1999 5.96798C20.2847 6.13078 20.4039 6.27277 20.5495 6.38416L21.3822 7.0228C21.7303 7.28971 22.0402 7.60321 22.3037 7.95413L22.8362 8.6638C22.8912 8.73763 22.9726 8.78732 23.0635 8.80291L23.9308 8.95237C23.9746 8.96014 24.0126 8.92261 24.0062 8.87858L23.9482 8.48425C23.8919 8.10547 23.7475 7.74474 23.5254 7.43255L22.8871 6.5333C22.6507 6.19959 22.3938 5.88043 22.1193 5.57715L19.5396 2.72906L17.9134 0.946551C17.8804 0.910521 17.8394 0.883414 17.7931 0.867199C17.6801 0.827373 17.5775 0.94728 17.6327 1.05342Z" fill="white"/>
<path d="M21.6993 4.0068L22.9007 5.77125C22.9379 5.82609 23.0107 5.84399 23.0692 5.81257C23.1233 5.78367 23.1494 5.72077 23.1324 5.66171L22.9283 4.96607C22.9154 4.92259 22.9606 4.8845 23.0009 4.9045L23.5365 5.16586C23.564 5.1792 23.5963 5.1797 23.6237 5.1659L23.6523 5.15211C23.7194 5.12018 23.7291 5.02859 23.6709 4.98314L23.0435 4.48844C22.8219 4.31324 22.57 4.17957 22.3014 4.0941C22.1111 4.03371 21.8969 3.96587 21.7586 3.92436C21.7098 3.90941 21.6695 3.965 21.6979 4.00742L21.6993 4.0068Z" fill="white"/>
<path d="M24.2741 6.07435C24.221 6.03672 24.1516 6.09574 24.1832 6.15308C24.5045 6.73679 25.0209 7.60903 25.1446 7.93586C25.2061 8.09894 25.5435 8.98202 25.6748 9.35032C25.6964 9.41072 25.7685 9.43508 25.8228 9.40036L26.0294 9.26719C26.16 9.18259 26.2372 9.03646 26.2324 8.88071L26.2072 8.07664C26.2006 7.86658 26.1124 7.66756 25.9622 7.52122L25.1149 6.69502C25.0569 6.63859 24.9945 6.58659 24.9279 6.53906L24.2755 6.07436L24.2741 6.07435Z" fill="white"/>
<path d="M19.7866 2.20069L19.8265 2.29562C19.8402 2.32814 19.8663 2.35308 19.8998 2.36521L21.2592 2.86518C21.7038 3.0289 22.1262 3.2485 22.5156 3.51863L23.463 4.17709C23.9757 4.53373 24.4336 4.96252 24.8262 5.44849C25.123 5.81606 25.4529 6.20739 25.6797 6.47312C25.8688 6.69499 26.0435 6.92893 26.2039 7.17298L27.6632 9.39936C27.7049 9.46266 27.7701 9.50564 27.8441 9.51969L28.1315 9.57314C28.1741 9.58095 28.2057 9.53554 28.1844 9.49837L26.7465 7.00482C26.6206 6.7865 26.4836 6.57381 26.3369 6.36874L23.132 1.88253C22.9278 1.59581 22.641 1.37827 22.3101 1.25826L20.2425 0.505938C20.1945 0.488411 20.1411 0.51087 20.1203 0.557703C20.1022 0.597494 20.1132 0.644168 20.1471 0.671824L21.9314 2.15955C21.9786 2.19904 21.9457 2.27607 21.8838 2.26867L19.9197 2.02634C19.823 2.01455 19.7492 2.11098 19.7866 2.20069Z" fill="white"/>
<path d="M24.3434 2.32003L25.825 4.40013C26.0008 4.64698 26.1635 4.904 26.3115 5.16854L28.2121 8.57094C28.2361 8.61394 28.2861 8.63603 28.334 8.62512L28.4048 8.60876C28.4644 8.5948 28.5015 8.53528 28.4874 8.47564L28.0849 6.73879C27.952 6.16568 27.7674 5.60535 27.5339 5.06495L27.0659 3.98157C26.9884 3.80208 26.855 3.65276 26.6859 3.55588L24.4092 2.24738C24.3624 2.22019 24.3117 2.27562 24.3434 2.32003Z" fill="white"/>
<path d="M28.811 7.84184L28.9089 8.74714C28.9526 9.15286 28.885 9.56277 28.712 9.93283L28.4417 10.5122C28.4149 10.5692 28.4307 10.638 28.4798 10.6774L29.5839 11.5734C29.6317 11.6123 29.7039 11.5823 29.7101 11.5204L29.7785 10.7961C29.8263 10.2896 29.7674 9.77832 29.6061 9.29586L29.4677 8.88094C29.3657 8.57705 29.2254 8.28679 29.0505 8.01862L28.9116 7.80589C28.8807 7.75826 28.806 7.78491 28.8122 7.84122L28.811 7.84184Z" fill="white"/>
<path d="M44.8403 12.7228V23.9076H42V10.1959H47.2692C48.2617 10.1959 49.1954 10.3656 50.0703 10.7052C50.9583 11.0447 51.7288 11.5213 52.3817 12.1351C53.0347 12.7358 53.5505 13.4606 53.9292 14.3094C54.3209 15.1452 54.5168 16.0723 54.5168 17.0909C54.5168 18.0965 54.3209 19.0171 53.9292 19.8529C53.5505 20.6886 53.0281 21.4068 52.3621 22.0076C51.6961 22.6083 50.9257 23.0784 50.0507 23.4179C49.1758 23.7444 48.2486 23.9076 47.2692 23.9076H45.8197L46.564 22.0076C46.6554 21.7856 46.7664 21.6354 46.897 21.557C47.0407 21.4656 47.2235 21.4068 47.4455 21.3807C47.7197 21.3416 47.9744 21.3024 48.2094 21.2632C48.4576 21.224 48.7122 21.1522 48.9734 21.0477C49.783 20.7082 50.4229 20.1859 50.893 19.4807C51.3631 18.7624 51.5982 17.9659 51.5982 17.0909C51.5982 16.4772 51.4872 15.9091 51.2652 15.3868C51.0432 14.8514 50.7363 14.3877 50.3445 13.996C49.9658 13.6042 49.5088 13.2973 48.9734 13.0753C48.451 12.8403 47.8764 12.7228 47.2496 12.7228H44.8403ZM62.8367 24.1231C61.8965 24.1231 61.0542 23.9794 60.3099 23.6921C59.5655 23.4048 58.9256 23 58.3902 22.4777C57.8679 21.9423 57.4631 21.2958 57.1758 20.5384C56.9015 19.781 56.7644 18.9387 56.7644 18.0116V10.2351H59.6047V18.0116C59.6047 18.5078 59.6765 18.9714 59.8202 19.4023C59.9638 19.8333 60.1727 20.2054 60.447 20.5189C60.7212 20.8323 61.0607 21.0804 61.4656 21.2632C61.8704 21.433 62.334 21.5178 62.8563 21.5178C63.3787 21.5178 63.8357 21.433 64.2275 21.2632C64.6323 21.0804 64.9718 20.8323 65.2461 20.5189C65.5203 20.2054 65.7227 19.8333 65.8533 19.4023C65.997 18.9714 66.0688 18.5078 66.0688 18.0116V10.2351H67.9296C68.1908 10.2351 68.4194 10.333 68.6152 10.5289C68.8111 10.7248 68.9091 10.9533 68.9091 11.2145V18.0116C68.9091 18.9387 68.7654 19.781 68.4781 20.5384C68.2039 21.2958 67.7991 21.9423 67.2637 22.4777C66.7413 23 66.108 23.4048 65.3636 23.6921C64.6193 23.9794 63.777 24.1231 62.8367 24.1231ZM77.2135 24.1231C76.1035 24.1231 75.0196 23.9141 73.9619 23.4962C72.9041 23.0653 71.9639 22.4711 71.1412 21.7137C71.2457 21.6093 71.3762 21.4721 71.5329 21.3024C71.6897 21.1326 71.8529 20.9694 72.0227 20.8127C72.1924 20.6429 72.3687 20.4993 72.5515 20.3817C72.7344 20.2642 72.9041 20.2054 73.0608 20.2054C73.2045 20.2054 73.4069 20.2838 73.6681 20.4405C73.9292 20.5841 74.2426 20.7539 74.6083 20.9498C74.9739 21.1326 75.3918 21.3024 75.8619 21.4591C76.332 21.6027 76.8479 21.6746 77.4094 21.6746C77.6836 21.6746 77.9774 21.6484 78.2909 21.5962C78.6173 21.544 78.9242 21.4591 79.2115 21.3416C79.4988 21.211 79.7338 21.0347 79.9167 20.8127C80.1126 20.5907 80.2105 20.3099 80.2105 19.9704C80.2105 19.5786 80.0864 19.2717 79.8383 19.0497C79.5902 18.8147 79.2637 18.6384 78.8589 18.5209C78.4671 18.3903 78.0101 18.2923 77.4877 18.227C76.9784 18.1487 76.4561 18.0638 75.9207 17.9724C75.3983 17.881 74.876 17.7635 74.3536 17.6198C73.8443 17.4762 73.3873 17.2672 72.9825 16.993C72.5907 16.7057 72.2708 16.34 72.0227 15.8961C71.7745 15.4521 71.6505 14.8905 71.6505 14.2115C71.6505 13.441 71.8072 12.7946 72.1206 12.2722C72.4471 11.7368 72.8649 11.3059 73.3742 10.9794C73.8835 10.6399 74.4581 10.3983 75.098 10.2547C75.7509 10.0979 76.4039 10.0196 77.0568 10.0196C78.0493 10.0196 79.0417 10.1894 80.0342 10.5289C81.0397 10.8684 81.9342 11.3581 82.7178 11.998C82.6002 12.1155 82.4631 12.2657 82.3064 12.4485C82.1497 12.6313 81.98 12.8076 81.7971 12.9774C81.6274 13.1341 81.4511 13.2777 81.2683 13.4083C81.0854 13.5259 80.9026 13.5846 80.7198 13.5846C80.6023 13.5846 80.4194 13.5259 80.1713 13.4083C79.9232 13.2908 79.6294 13.1667 79.2898 13.0362C78.9503 12.8925 78.5716 12.7619 78.1537 12.6444C77.7489 12.5269 77.318 12.4681 76.8609 12.4681C76.6259 12.4681 76.3582 12.4942 76.0578 12.5465C75.7705 12.5856 75.4963 12.664 75.2351 12.7815C74.987 12.886 74.778 13.0362 74.6083 13.232C74.4385 13.4279 74.3536 13.6826 74.3536 13.996C74.3536 14.3616 74.4777 14.6489 74.7258 14.8579C74.9739 15.0668 75.3004 15.2301 75.7052 15.3476C76.11 15.4651 76.5671 15.5631 77.0764 15.6414C77.5987 15.7067 78.1276 15.7851 78.663 15.8765C79.2115 15.9679 79.7404 16.0919 80.2497 16.2486C80.772 16.3923 81.2356 16.6078 81.6404 16.895C82.0452 17.1823 82.3717 17.5545 82.6198 18.0116C82.868 18.4556 82.992 19.0236 82.992 19.7157C82.992 20.5123 82.8157 21.1914 82.4631 21.7529C82.1236 22.3144 81.6796 22.7715 81.1311 23.1241C80.5827 23.4767 79.9624 23.7313 79.2703 23.888C78.5912 24.0447 77.9056 24.1231 77.2135 24.1231ZM91.5044 23.9076H88.6642V12.7032H84.0414V10.1959H96.7541L96.0097 12.0763C95.9444 12.2592 95.8269 12.4093 95.6571 12.5269C95.4874 12.6444 95.3045 12.7032 95.1086 12.7032H91.5044V23.9076ZM110.07 24.1231C109.078 24.1231 108.138 23.9533 107.25 23.6138C106.362 23.2612 105.585 22.7715 104.919 22.1447C104.253 21.5178 103.724 20.7735 103.332 19.9116C102.953 19.0497 102.764 18.1095 102.764 17.0909C102.764 16.0723 102.953 15.1321 103.332 14.2702C103.724 13.3953 104.253 12.6444 104.919 12.0176C105.585 11.3777 106.362 10.8815 107.25 10.5289C108.138 10.1763 109.078 10 110.07 10C111.141 10 112.179 10.222 113.185 10.666C114.191 11.0969 115.046 11.7238 115.751 12.5465C115.633 12.6248 115.477 12.7358 115.281 12.8795C115.098 13.0231 114.902 13.1667 114.693 13.3104C114.497 13.441 114.302 13.5585 114.106 13.663C113.91 13.7674 113.74 13.8197 113.596 13.8197C113.453 13.8197 113.276 13.7609 113.067 13.6434C112.872 13.5128 112.63 13.3692 112.343 13.2125C112.055 13.0558 111.722 12.9186 111.344 12.8011C110.978 12.6705 110.554 12.6052 110.07 12.6052C109.444 12.6052 108.863 12.7227 108.327 12.9578C107.792 13.1929 107.328 13.5128 106.936 13.9176C106.545 14.3094 106.238 14.7795 106.016 15.328C105.794 15.8765 105.683 16.4641 105.683 17.0909C105.683 17.7177 105.794 18.3054 106.016 18.8539C106.251 19.3893 106.571 19.8529 106.976 20.2446C107.38 20.6364 107.85 20.9498 108.386 21.1848C108.934 21.4068 109.522 21.5178 110.149 21.5178C110.619 21.5178 111.037 21.4591 111.402 21.3416C111.768 21.224 112.088 21.0934 112.362 20.9498C112.637 20.7931 112.872 20.656 113.067 20.5384C113.276 20.4209 113.453 20.3621 113.596 20.3621C113.74 20.3621 113.903 20.4144 114.086 20.5189C114.282 20.6103 114.478 20.7278 114.674 20.8714C114.87 21.002 115.059 21.1391 115.242 21.2828C115.425 21.4264 115.575 21.5374 115.692 21.6158C115.353 22.0076 114.967 22.3601 114.537 22.6735C114.106 22.987 113.642 23.2547 113.146 23.4767C112.663 23.6856 112.16 23.8423 111.638 23.9468C111.115 24.0643 110.593 24.1231 110.07 24.1231ZM120.668 23.9076H117.828V10.1959H119.689C119.95 10.1959 120.178 10.2938 120.374 10.4897C120.57 10.6856 120.668 10.9141 120.668 11.1753V23.9076ZM129.992 23.9076H127.152V12.7032H122.529V10.1959H135.242L134.498 12.0763C134.432 12.2592 134.315 12.4093 134.145 12.5269C133.975 12.6444 133.792 12.7032 133.597 12.7032H129.992V23.9076ZM144.934 23.9076H142.093V18.2466L146.912 10.9206C147.056 10.6986 147.245 10.5223 147.48 10.3918C147.715 10.2612 147.97 10.1959 148.244 10.1959H150.614L144.934 18.7559V23.9076ZM141.408 17.5219L136.55 10.1959H138.901C139.162 10.1959 139.41 10.2612 139.645 10.3918C139.893 10.5223 140.089 10.6986 140.233 10.9206L142.975 15.1125L141.408 17.5219Z" fill="#F5F7FA"/>
</g>
<defs>
<clipPath id="clip0_402_2">
<rect width="150" height="38" fill="white"/>
</clipPath>
</defs>
</svg>
