<svg width="150" height="38" viewBox="0 0 150 38" fill="none" xmlns="http://www.w3.org/2000/svg">
<path d="M28.9016 27.6435L28.221 28.6759C27.9968 29.0162 27.6738 29.2793 27.2948 29.4299L26.9015 29.5862C26.2672 29.8388 25.5982 29.9935 24.9172 30.0451L24.716 30.0602C24.5996 30.0687 24.5033 30.1546 24.4802 30.2692L24.0906 32.2342C24.0521 32.4281 23.9102 32.5849 23.7213 32.6428L22.235 33.0976C22.0883 33.1427 21.9547 33.222 21.8451 33.3295L20.3979 34.7508C20.3021 34.845 20.157 34.8674 20.0371 34.8074L15.951 32.7531C14.422 31.9843 13.1717 30.7567 12.3762 29.2413L10.9308 26.4891C10.8786 26.3901 10.7285 26.4389 10.7443 26.5491L10.7601 26.663C10.7614 26.6701 10.7631 26.6772 10.7656 26.6844L11.6778 29.1099C12.3952 31.0162 13.8109 32.5778 15.6377 33.4776L18.8966 35.082L24.3729 37.2686C24.6361 37.3733 24.9338 37.3417 25.1687 37.1831L25.7073 36.8191C25.8574 36.718 25.9434 36.5456 25.9338 36.3646C25.9219 36.1273 25.9358 35.8897 25.9768 35.6564L26.3404 33.5766L26.6213 32.8237C26.659 32.7228 26.5817 32.6158 26.4738 32.6199L26.3614 32.624C26.3161 32.6259 26.2744 32.6472 26.2475 32.683L25.6523 33.4583L24.9831 32.7685C24.8973 32.68 24.8629 32.5541 24.892 32.4345L25.2661 30.8961C25.2895 30.8001 25.3642 30.7251 25.4609 30.702C25.6385 30.6594 25.9432 30.5826 26.2462 30.5053C26.8526 30.3502 27.4362 30.1175 27.9828 29.8131C28.1895 29.6981 28.3592 29.5274 28.4735 29.3206L29.0621 28.2557C29.141 28.1136 29.1559 27.9445 29.1027 27.7905L29.0594 27.6646C29.0353 27.5931 28.9399 27.5814 28.8982 27.644L28.9016 27.6435ZM20.8778 34.9706L21.9196 33.7409C21.9657 33.6866 22.0484 33.6841 22.0981 33.7352L24.6562 36.3911C24.7364 36.4743 24.6496 36.6087 24.5404 36.5702L20.9645 35.2937C20.8309 35.2458 20.7862 35.079 20.8778 34.9706ZM25.105 35.2073L25.0385 36.1487C25.0351 36.1959 24.9768 36.2163 24.945 36.181L22.6736 33.6593C22.6145 33.5938 22.6438 33.4895 22.7282 33.4638L23.7699 33.1494C23.8912 33.1131 24.0216 33.1654 24.0839 33.2763L25.0651 35.0263C25.096 35.0811 25.1098 35.1439 25.1057 35.2066L25.105 35.2073Z" fill="white"/>
<path d="M16.9872 31.2834L17.8731 30.93C17.9239 30.91 17.9313 30.841 17.8866 30.8099L17.4454 30.506C17.4262 30.4929 17.4023 30.4906 17.3808 30.4993L16.5449 30.8374C16.4968 30.8568 16.4874 30.9206 16.5277 30.9534L16.9189 31.2728C16.938 31.2886 16.9645 31.2921 16.9872 31.2834Z" fill="white"/>
<path d="M16.0233 30.6222L16.4349 30.4489C16.4785 30.4303 16.4872 30.3723 16.4501 30.342L14.7939 29.004C14.7748 28.9889 14.749 28.9859 14.7269 28.9966L14.3305 29.1869C14.2889 29.2069 14.2823 29.2637 14.3187 29.2928L15.9596 30.6143C15.9773 30.6286 16.0018 30.6324 16.0233 30.623V30.6222Z" fill="white"/>
<path d="M13.9617 28.8641L15.1436 28.3418C15.1987 28.3175 15.2191 28.2499 15.187 28.1992L14.977 27.8664C14.9511 27.8254 14.8989 27.8091 14.854 27.8284L13.6855 28.3347C13.6316 28.3578 13.6099 28.4227 13.6388 28.4734L13.835 28.822C13.8602 28.8664 13.9142 28.8846 13.961 28.8641H13.9617Z" fill="white"/>
<path d="M13.7128 27.5608L14.1721 27.1946C14.2276 27.1505 14.248 27.0401 14.218 26.9502L12.5224 21.8652C12.4378 21.6112 12.3056 21.4061 12.1449 21.2792L11.3445 20.6497C11.2599 20.5826 11.1753 20.7286 11.2226 20.8616L13.5677 27.4858C13.5975 27.5695 13.661 27.6023 13.7128 27.5608Z" fill="white"/>
<path d="M14.7246 25.2115L14.5103 25.4964C14.4792 25.5379 14.4751 25.5939 14.5003 25.639L15.5271 27.4937C16.007 28.3603 16.655 29.1215 17.434 29.7334L18.6572 30.6945C19.1993 31.1201 19.7961 31.4703 20.4322 31.7345L21.5743 32.2092C21.7084 32.2647 21.8612 32.2509 21.9832 32.1714L22.5215 31.8198C22.5802 31.7813 22.5718 31.6926 22.5071 31.6663L20.7947 30.9653C20.2534 30.7439 19.7397 30.4602 19.2641 30.1203L18.0428 29.2491C17.1819 28.6353 16.4626 27.8439 15.9318 26.9289L14.944 25.2239C14.8968 25.1423 14.7819 25.1354 14.7251 25.2108L14.7246 25.2115Z" fill="white"/>
<path d="M23.8059 30.5275L23.7422 30.9426C23.7342 30.996 23.689 31.0367 23.6347 31.0391C22.7885 31.0792 21.9453 30.9127 21.1776 30.5541L20.4994 30.2377C19.9189 29.9666 19.3683 29.6333 18.8593 29.2444L18.121 28.6808C17.3833 28.1174 16.7681 27.4095 16.3127 26.601C15.6407 25.4072 15.1291 24.1307 14.7901 22.803L14.4412 21.4367C14.4204 21.3556 14.4644 21.2715 14.543 21.2424L14.9874 21.0773C15.0959 21.037 15.2159 21.095 15.2522 21.2046L16.6367 25.39C16.6705 25.4933 16.7573 25.5715 16.8636 25.5951L18.8832 26.0436C19.4525 26.1699 20.0481 26.0833 20.557 25.7989L21.4419 25.3052L22.2187 24.85C22.5787 24.6389 22.8714 24.3308 23.0637 23.9609L23.1362 23.8206C23.2081 23.6827 23.3649 23.6114 23.5162 23.648L24.1412 23.8002C24.1811 23.8099 24.2232 23.8014 24.2558 23.776C24.3873 23.676 24.5778 23.7209 24.6505 23.8694L24.7946 24.1628C24.9368 24.4525 25.1508 24.7019 25.4162 24.8862L25.6296 25.0347C25.9532 25.2593 26.3269 25.3993 26.7185 25.4427C27.0772 25.4817 27.4396 25.4388 27.7786 25.3153C28.2833 25.1324 28.9771 24.8807 28.9771 24.8807L29.2739 24.7443C29.3623 24.7037 29.4607 24.7762 29.4476 24.8729L29.4185 25.0909C29.328 25.7684 29.121 26.425 28.8063 27.032L28.7497 27.141C28.5874 27.4532 28.3706 27.7335 28.1093 27.9691L27.6305 28.4C27.4137 28.5949 27.16 28.7448 26.884 28.8401L26.697 28.9052C26.636 28.9261 26.57 28.893 26.5501 28.8319L26.2844 28.0042C26.1437 27.5653 25.9173 27.1587 25.6182 26.808L25.308 26.4434L24.9407 26.1142C24.8694 26.0505 24.7628 26.0443 24.6851 26.1005L23.2913 27.1034L22.9083 27.3574C22.8893 27.37 22.8648 27.3709 22.8449 27.3595L22.7046 27.2806C22.672 27.262 22.6635 27.2187 22.6872 27.1892L22.9228 26.902C23.1302 26.6487 23.3676 26.4218 23.6301 26.2261L24.4071 25.646C24.5045 25.5733 24.5522 25.4519 24.5295 25.3327L24.3711 24.4872C24.3436 24.3421 24.2381 24.2242 24.0972 24.1819L23.7108 24.065C23.633 24.0413 23.5498 24.0787 23.5157 24.1525C23.3413 24.5264 23.0626 24.8413 22.7131 25.0602L21.8254 25.6153L20.6092 26.2733C20.1162 26.5398 19.5451 26.6235 18.9964 26.5098L16.9207 26.0805C17.3638 26.8986 17.9693 27.6171 18.7002 28.1928L18.9938 28.4241C19.6202 28.9174 20.3097 29.3251 21.0442 29.6354L21.8407 29.9724C22.2984 30.1662 22.7816 30.293 23.2757 30.3501L23.7059 30.4C23.7703 30.4074 23.8153 30.4669 23.8052 30.5307L23.8059 30.5275Z" fill="white"/>
<path d="M16.778 23.0386C16.9197 23.5234 17.2365 23.9378 17.6667 24.2021L19.2279 25.1626C19.6687 25.434 20.2257 25.4322 20.6646 25.1578L21.0311 24.9288C21.45 24.6676 21.8009 24.3112 22.0554 23.8881L22.2119 23.6283C22.3166 23.4541 22.3437 23.2445 22.2866 23.0492L22.2078 22.7812C22.1974 22.7448 22.1837 22.7092 22.1675 22.6753L21.877 22.0616C21.6467 21.5756 21.2703 21.1745 20.7994 20.914L20.2914 20.633C19.8929 20.4125 19.4301 20.3371 18.9818 20.4187L16.7709 20.8227C16.6607 20.8429 16.6204 20.9799 16.7033 21.0561L16.7702 21.1179C16.7962 21.1415 16.8303 21.155 16.8652 21.1535L18.8119 21.1062C19.3884 21.0923 19.9536 21.2676 20.4207 21.6054L20.9305 21.9744L21.4828 22.4988C21.549 22.5619 21.5695 22.6597 21.5339 22.7445C21.489 22.8504 21.3707 22.9036 21.2614 22.867L20.8583 22.7317L20.7459 22.7397C20.103 22.7847 19.4576 22.7013 18.847 22.4931L18.0616 22.2254C17.9916 22.2018 17.9146 22.2123 17.8532 22.2539L17.4673 22.5161C17.4288 22.5428 17.4242 22.5976 17.4585 22.6297L17.886 23.0329C17.9298 23.0742 17.8906 23.1466 17.8328 23.1328L16.8922 22.9176C16.8207 22.9011 16.7576 22.968 16.7785 23.0388L16.778 23.0386Z" fill="white"/>
<path d="M17.1763 22.0384L16.9532 22.2262C16.931 22.2452 16.898 22.2449 16.8756 22.2257L16.2081 21.6548C16.1832 21.6339 16.1694 21.6032 16.1699 21.5709L16.1703 21.5484C16.1715 21.4657 16.2615 21.4148 16.3331 21.456L17.1682 21.9401C17.204 21.9607 17.2084 22.0111 17.1763 22.0378V22.0384Z" fill="white"/>
<path d="M18.6275 21.3952L19.3296 21.3613L19.3073 21.6019C19.2995 21.6858 19.3273 21.7695 19.3844 21.8318C19.462 21.9169 19.5964 21.9164 19.674 21.8304L19.8718 21.6092L20.3853 21.9466L20.1675 22.1726C20.0586 22.2852 19.911 22.3528 19.7538 22.3601L19.5365 22.3709C19.4015 22.3773 19.2675 22.3397 19.1563 22.2632L18.9857 22.1456C18.7964 22.0149 18.6729 21.8087 18.6474 21.5802L18.627 21.3952H18.6275Z" fill="white"/>
<path d="M25.099 22.8953L24.9954 23.3755C24.9601 23.5385 24.9924 23.7088 25.0846 23.8479L25.2943 24.1637C25.394 24.3145 25.5292 24.4387 25.688 24.5258C26.2441 24.8312 26.8725 24.981 27.5065 24.9602L27.562 24.9584C27.7703 24.9513 27.975 24.9093 28.1687 24.8339L29.2468 24.4124C29.3495 24.3725 29.4162 24.2733 29.416 24.1635L29.4132 23.1486L29.3756 22.6059C29.3657 22.458 29.3802 22.3083 29.4205 22.1655C29.4655 22.004 29.3907 21.8323 29.2418 21.7551L29.1977 21.7324L28.7973 22.0624L28.9704 22.4842L28.3594 22.4317L27.2965 22.8355L26.2044 22.8486L25.7557 22.8289C25.6731 22.825 25.5956 22.8685 25.5551 22.9409C25.5212 23.0017 25.4433 23.0225 25.3832 22.9866L25.1758 22.8616C25.1457 22.8429 25.1059 22.8605 25.0983 22.8953H25.099Z" fill="white"/>
<path d="M25.1946 22.3297L25.3356 22.4067C25.3793 22.4306 25.4343 22.4166 25.4614 22.3751C25.6943 22.0162 26.0044 21.7134 26.369 21.4895C26.3858 21.4794 26.4029 21.4688 26.4199 21.4586C26.725 21.2713 27.061 21.1402 27.4123 21.0719L27.4304 21.0682C27.8872 20.979 28.3551 20.9641 28.816 21.0233C29.0348 21.0512 29.2507 21.0797 29.3777 21.0964C29.4403 21.1046 29.4958 21.0588 29.5013 20.9963L29.5414 20.4858L29.5991 19.5378L29.6525 18.2225C29.662 17.9836 29.5395 17.759 29.3339 17.6369L29.3287 17.6335C28.7415 17.2874 28.0651 17.1235 27.3849 17.1617L27.3454 17.1636C26.8682 17.1906 26.4078 17.351 26.0172 17.6273C25.6633 17.8778 25.3626 18.197 25.1341 18.5656C25.0195 18.7499 25.0071 18.9804 25.1016 19.1762C25.1662 19.3103 25.1845 19.4624 25.1525 19.6085L25.0213 20.2183C25.0053 20.2931 25.0505 20.3675 25.124 20.3866C25.1955 20.4058 25.2689 20.3675 25.2946 20.2981L25.2993 20.2851C25.5182 19.6962 25.9288 19.1979 26.4667 18.8732C26.5013 18.8525 26.5345 18.8322 26.5652 18.8134C26.7119 18.7219 26.8776 18.6669 27.0497 18.6527L27.6317 18.6034C27.7742 18.5913 27.9099 18.6651 27.9766 18.7914L27.9979 18.8324C28.0505 18.9314 28.0048 19.0549 27.9008 19.0959L27.1117 19.407C26.7875 19.5351 26.4914 19.7258 26.2414 19.9687C25.9005 20.2995 25.6342 20.6992 25.4607 21.1418L25.4291 21.2232C25.3122 21.522 25.223 21.8307 25.1639 22.1457L25.1485 22.2275C25.1407 22.2681 25.16 22.3098 25.1965 22.3297H25.1946Z" fill="white"/>
<path d="M28.4062 18.4844L28.6574 18.963L29.2416 18.864L28.9235 18.4922L28.4062 18.4844Z" fill="white"/>
<path d="M24.1199 12.3145L22.4346 15.331L24.1342 17.083L25.736 15.3164L24.1206 12.315L24.1199 12.3145ZM22.8887 15.2513L24.1012 13.0345L25.3269 15.2456L24.1399 16.5334L22.8885 15.252L22.8887 15.2513Z" fill="white"/>
<path d="M17.2852 17.7122L17.6449 18.1926L18.4652 18.1617L19.3914 18.2623L18.952 18.7732L19.4468 18.8673L19.7783 18.354L21.2529 19.2616L22.6126 20.6407L22.8717 20.6446L22.8851 19.7605L22.3889 18.351L20.9116 17.5735L18.9736 17.3496L17.2852 17.7122Z" fill="white"/>
<path d="M13.1795 18.8307L13.2279 18.7881C13.2831 18.7399 13.3698 18.7631 13.394 18.8319L13.807 20.0223C13.8217 20.0652 13.8777 20.0771 13.9081 20.0432L14.2602 19.6553C14.2989 19.6125 14.3134 19.5527 14.2987 19.4961L13.7014 17.268C13.6892 17.2226 13.7112 17.1752 13.7534 17.1545L14.1694 17.0354C14.9052 16.8147 15.3033 16.6423 16.1445 16.4645L16.9897 16.2822C17.3557 16.2258 17.8934 16.13 18.2004 16.1101L18.9095 16.0917C19.348 16.0984 19.8181 16.1087 20.2476 16.1999C20.5253 16.2589 20.8485 16.3278 21.1274 16.3895C21.6056 16.4951 22.0541 16.7085 22.4371 17.0141L23.4545 17.8261L24.1041 18.3973C24.1444 18.4328 24.2058 18.4266 24.2381 18.3838L25.1689 17.1615L25.4838 16.88C25.9986 16.4202 26.6677 16.1699 27.3583 16.1803L27.7128 16.1857C27.7955 16.1869 27.9315 16.2135 27.9991 16.2236C28.1467 16.2446 28.2161 16.2774 28.3679 16.3132C28.7426 16.4016 29.0575 16.5066 29.3992 16.6836L29.0346 12.7404C29.0146 12.5224 28.8941 12.3262 28.7092 12.2089C27.9209 11.7106 27.0722 11.3127 26.1843 11.026L26.1226 11.0063C25.4676 10.7948 24.7969 10.6361 24.1162 10.5307L23.4749 10.4319C22.8723 10.3388 22.2631 10.2887 21.6533 10.2809L21.2852 10.2765C20.5437 10.2673 19.8025 10.3199 19.0702 10.4335L18.5591 10.513C18.1305 10.5795 17.7126 10.7017 17.3159 10.8759C16.7039 11.1452 16.1697 11.5628 15.7605 12.0909L15.4417 12.5027C15.1662 12.8584 14.9265 13.2398 14.7261 13.6425L12.623 18.1651C12.5703 18.2703 12.4387 18.3077 12.3388 18.2448L11.8006 17.9052C11.7142 17.8509 11.6829 17.74 11.7282 17.6483L13.7576 13.2499C13.9464 12.869 14.1696 12.506 14.4254 12.1663L14.844 11.6093C15.4018 10.867 16.13 10.2694 16.9663 9.86669C17.2746 9.71838 17.6044 9.61922 17.9429 9.57274L19.0097 9.42741C19.7575 9.32505 20.5127 9.28675 21.2675 9.3124L21.5226 9.32079C22.1483 9.3419 22.772 9.40822 23.388 9.51897L24.1572 9.65718C24.9477 9.7991 25.7236 10.015 26.4745 10.301L26.5258 10.3205C27.3101 10.6192 28.0575 11.0052 28.7547 11.4725L29.1229 11.7198C29.1882 11.7634 29.2482 11.8152 29.3016 11.8736C29.4426 12.0295 29.5288 12.2272 29.5476 12.4361L29.9562 17.1042C29.9677 17.2387 29.8549 17.3507 29.7201 17.3377L29.5242 17.2165C29.1588 16.99 28.6005 16.7464 28.1778 16.665L28.0876 16.6442C27.8199 16.5827 27.5471 16.5495 27.272 16.5454C26.6209 16.5355 25.9966 16.8039 25.556 17.2824L25.2492 17.615L24.5168 18.5353C24.4713 18.5928 24.4791 18.6757 24.5347 18.723C24.5959 18.7757 24.6003 18.8694 24.5432 18.9272L24.4297 19.0425C24.3798 19.0934 24.2989 19.0986 24.2429 19.0539L22.3564 17.5556C21.8974 17.1913 21.348 16.9595 20.8444 16.813L20.1591 16.6707C19.7472 16.6089 19.2324 16.6077 18.866 16.6143L17.9374 16.6733C17.4004 16.7303 16.9297 16.8369 16.4468 16.935L16.4424 16.9348C16.2421 16.9763 16.0449 17.0322 15.8525 17.1023L14.5215 17.5866C14.5118 17.6324 14.4985 17.6554 14.504 17.6781L14.9542 19.5611C14.9773 19.6583 14.9524 19.7613 14.8866 19.8371L14.0158 20.8208C13.9696 20.8738 13.8847 20.8582 13.8598 20.7933L13.152 18.9432C13.1364 18.9029 13.1481 18.8566 13.1809 18.828L13.1795 18.8307Z" fill="white"/>
<path d="M25.8921 22.4234C25.8317 22.3986 25.816 22.3209 25.8626 22.2749C26.0022 22.1381 26.2454 21.9034 26.276 21.904C26.2946 21.9043 26.3737 21.9701 26.4585 22.0443C26.6102 22.1784 26.8108 22.2428 27.012 22.2233H27.0139C27.2158 22.2031 27.4101 22.1349 27.5804 22.0232C27.7017 21.9437 27.7819 21.8144 27.7989 21.67L27.8381 21.3379L28.7191 21.4028C28.7732 21.4069 28.8145 21.4521 28.8137 21.5064C28.8133 21.5368 28.7993 21.565 28.7764 21.5839L28.4727 21.9269C28.3634 22.0164 28.1582 22.1761 28.0288 22.2316L27.5674 22.4534C27.4477 22.5045 27.0363 22.579 26.9064 22.5809L26.6041 22.5763C26.3659 22.5728 26.0737 22.4972 25.8926 22.4227L25.8921 22.4234Z" fill="white"/>
<path d="M9.95719 15.6202L10.2802 15.9963C10.3182 16.0412 10.3732 16.0458 10.4147 16.0089L11.5653 14.9805C11.8043 14.7672 12.0282 14.5247 12.2355 14.256C12.5504 13.8483 12.8233 13.3842 13.0479 12.8756L13.4232 12.0234C13.4371 11.9922 13.4365 11.953 13.4227 11.9221L13.2934 11.6361C13.2694 11.5822 13.215 11.5741 13.1832 11.6188L12.2983 12.8661C12.1669 13.0513 12.0267 13.2271 11.8802 13.3894L10.7855 14.6046C10.6549 14.7499 10.5183 14.8856 10.3769 15.0106L9.96908 15.3717C9.90593 15.4274 9.90025 15.5517 9.9579 15.6193L9.95719 15.6202Z" fill="white"/>
<path d="M7.9914 19.5723L8.30256 19.9165C8.33893 19.9575 8.40119 19.974 8.45459 19.9577L9.93357 19.501C10.2408 19.4065 10.5353 19.2876 10.8149 19.1459C11.2394 18.9312 11.6471 18.6976 12.0769 18.4686L12.5346 18.2763C12.5552 18.2573 12.5486 18.1028 12.5376 18.0774L12.4372 17.5362C12.4182 17.4922 11.9675 17.1684 11.924 17.1927L11.4042 17.9229C11.2245 18.0233 10.7372 18.3648 10.5437 18.4453L9.09944 19.048C8.927 19.12 8.74925 19.1838 8.56777 19.2392L8.04409 19.3983C7.96284 19.423 7.93694 19.5099 7.99229 19.5718L7.9914 19.5723Z" fill="white"/>
<path d="M10.0229 12.3894L11.4536 11.8498C11.5029 11.8311 11.551 11.8093 11.5973 11.7847L12.4063 11.3513C12.4728 11.3154 12.5374 11.275 12.5975 11.2294L12.9567 10.9617C12.9986 10.9307 12.9801 10.865 12.9287 10.8597L11.7882 10.7385C11.6974 10.7288 11.6064 10.7227 11.5146 10.7201L7.81301 10.6227L5.18397 10.6016C5.10323 10.6003 5.08278 10.713 5.15858 10.7414L6.65938 11.2957L9.44935 12.2445L9.73798 12.38C9.82721 12.422 9.92993 12.4256 10.0222 12.3908L10.0229 12.3894Z" fill="white"/>
<path d="M7.69795 14.3701L8.70079 13.9092C8.73538 13.8933 8.76891 13.8757 8.80067 13.8566L9.35681 13.5207C9.40241 13.4931 9.4464 13.4629 9.4865 13.4301L9.72723 13.2367C9.75525 13.2144 9.73627 13.1776 9.69795 13.1798L8.85194 13.2238C8.78435 13.2271 8.71729 13.2328 8.64988 13.2404L5.92867 13.5568L4.00009 13.8095C3.94082 13.817 3.93539 13.8851 3.99334 13.894L5.14022 14.0678L7.26545 14.343L7.48844 14.3934C7.55745 14.409 7.63302 14.4006 7.69759 14.371L7.69795 14.3701Z" fill="white"/>
<path d="M7.9504 17.8088L8.40543 17.0726C8.42104 17.0472 8.43505 17.0208 8.44747 16.994L8.66106 16.5223C8.67845 16.4834 8.69353 16.4433 8.70488 16.4025L8.77407 16.1604C8.78223 16.1324 8.75171 16.1105 8.72688 16.1265L8.17623 16.4753C8.13241 16.5031 8.08966 16.5326 8.04779 16.5638L6.36178 17.824L5.18057 18.7401C5.14409 18.768 5.17338 18.8239 5.21686 18.8093L6.07587 18.5205L7.64492 17.948L7.82001 17.9049C7.87412 17.8916 7.92113 17.857 7.95058 17.8097L7.9504 17.8088Z" fill="white"/>
<path d="M7.01216 9.42688L7.63501 9.29484C7.869 9.2454 8.106 9.21281 8.34461 9.19835L8.82962 9.16887C9.21298 9.14561 9.59652 9.20699 9.95344 9.34742L10.4557 9.54554C10.5314 9.57588 10.5208 9.68622 10.4404 9.70112C9.97988 9.78592 9.50924 9.7994 9.04498 9.74068L8.19577 9.63353L7.01677 9.50964C6.96905 9.50439 6.9655 9.43651 7.01216 9.42688Z" fill="white"/>
<path d="M4.26146 15.8561C4.35969 15.8739 4.41745 15.9769 4.38201 16.0697L3.48051 18.4377L3.03251 19.9095C3.00334 20.0048 2.98239 20.1018 2.96884 20.2003L2.89893 20.7089C2.89009 20.7753 2.97175 20.8132 3.01695 20.7637L4.01034 19.6557C4.07431 19.584 4.19017 19.5973 4.23613 19.6814C4.29066 19.7804 4.31419 19.8932 4.30391 20.0053L4.27294 22.1476L4.31396 25.4421L4.39137 26.4387C4.39694 26.5113 4.49774 26.5234 4.52054 26.4545L4.94566 25.1698C4.99242 25.0289 5.04612 24.8902 5.10777 24.7549L5.36342 24.189C5.39799 24.1125 5.49322 24.0836 5.56438 24.1288C5.61916 24.1632 5.64302 24.2314 5.62141 24.2922L5.24853 25.358L4.61759 27.2915C4.60058 27.344 4.5781 27.3948 4.55084 27.4432L4.46054 27.603C4.36152 27.7785 4.10407 27.7669 4.02196 27.5821L3.8572 24.2638L3.78648 20.5883C3.7853 20.5381 3.72437 20.5138 3.68949 20.5505L3.02268 21.2436C2.91118 21.3591 2.84775 21.5125 2.84446 21.6731L2.80503 23.5608C2.80439 23.5925 2.78979 23.622 2.76455 23.6411C2.70373 23.6874 2.61487 23.6536 2.60024 23.5787L1.88711 19.8817C1.85406 19.7093 1.88658 19.5311 1.97838 19.3814L4.09811 15.9278C4.13296 15.8716 4.19797 15.8423 4.26302 15.8542L4.26146 15.8561Z" fill="white"/>
<path d="M2.54048 17.1977L2.70924 16.9705C2.76149 16.8995 2.78735 16.8122 2.78089 16.7244L2.59631 14.1028C2.59044 14.0219 2.62214 13.9428 2.68181 13.8878L4.58045 12.1365C4.61203 12.1078 4.58047 12.0567 4.54008 12.0719L3.0962 12.6215C3.03245 12.6456 2.96826 12.5857 2.98921 12.5202L3.71409 10.2312C3.74189 10.1434 3.62468 10.0842 3.5708 10.1594L1.63129 12.8489L0.2836 14.9687C0.0934272 15.2672 -0.00487023 15.6148 0.000185664 15.9689L0.0208708 17.406C0.0227335 17.5601 0.0309641 17.7147 0.044553 17.8681L0.199902 19.6332C0.208134 19.7294 0.317376 19.7805 0.396638 19.7253C0.432296 19.701 0.455181 19.6616 0.459474 19.6183L0.807905 15.9545C0.817644 15.8502 0.862686 15.7517 0.935136 15.6754L2.03753 14.5184C2.06819 14.4865 2.12173 14.5046 2.12677 14.5486L2.41884 17.1644C2.42549 17.2261 2.50424 17.2467 2.54112 17.1975L2.54048 17.1977Z" fill="white"/>
<path d="M0.930606 9.41188L2.02186 8.55239C2.31021 8.32548 3.13769 7.90519 3.61648 7.72961L4.8221 7.29631L5.2804 7.15145C5.53293 7.07128 5.75744 6.92028 5.92721 6.71677L6.4201 6.12537C6.47403 6.06094 6.41407 5.96505 6.33247 5.98513L5.1162 6.26323C4.99363 6.29369 4.34646 6.49706 4.22882 6.54307L3.13946 6.97815C2.97179 7.04409 2.69611 7.20272 2.53907 7.29207L1.95126 7.62685C1.69385 7.77347 1.48636 7.99385 1.35699 8.26064L0.833586 9.33418C0.80357 9.39575 0.877617 9.455 0.931227 9.41254L0.930606 9.41188Z" fill="white"/>
<path d="M3.34578 4.47904C3.30206 4.50617 3.32688 4.57374 3.37803 4.56675L4.59068 4.30927C5.00289 4.22185 5.42228 4.17136 5.84367 4.15901L7.09828 4.12247C7.15061 4.11745 7.15877 4.04392 7.10875 4.02767L5.26682 3.43058C5.15946 3.396 5.0423 3.41039 4.94644 3.47029L3.34578 4.47904Z" fill="white"/>
<path d="M7.72618 27.3498C7.77159 27.3741 7.81754 27.3189 7.78596 27.2781L6.9568 26.3567C6.67491 26.0434 6.4214 25.7054 6.20008 25.3466L5.54116 24.2784C5.51062 24.2355 5.44283 24.2651 5.45383 24.3167L5.85766 26.2103C5.8814 26.3207 5.95243 26.4149 6.05225 26.4679L7.72618 27.3498Z" fill="white"/>
<path d="M8.25306 3.54825L8.94013 4.41531C8.9788 4.4637 8.95964 4.53578 8.90252 4.55946L8.29209 4.80732C8.23035 4.83223 8.23674 4.92212 8.30184 4.93796L9.95716 5.34359C10.4053 5.4531 10.9105 5.61385 11.3856 5.8097L12.3414 6.21247C12.6662 6.34918 12.9811 6.509 13.2832 6.68994L15.0202 7.73249L16.4656 8.61557C16.6845 8.7494 16.8921 8.89983 17.0879 9.06561C17.1314 9.10244 17.1885 9.11881 17.2449 9.10934L17.7986 9.02082C17.8887 9.00668 17.9221 8.89477 17.8552 8.83304L16.74 7.81154C16.1908 7.30834 15.5994 6.85297 14.9724 6.45003L13.3006 5.37681C12.568 4.90638 11.7764 4.53517 10.9463 4.27259L8.32508 3.44275C8.2621 3.42306 8.2119 3.49595 8.25235 3.54759L8.25306 3.54825Z" fill="white"/>
<path d="M15.6927 5.90065L16.4335 6.2995C16.6024 6.40608 16.8543 6.57722 17.0361 6.7376L17.3006 7.01035C17.6547 7.35554 17.9233 7.79246 18.23 8.26484L18.5078 8.69221C18.5559 8.76012 18.6354 8.79879 18.7182 8.79489L19.8688 8.74642C19.9664 8.7421 20.0198 8.63115 19.9629 8.5521L19.2776 7.60496C18.9105 7.09744 18.4658 6.65073 17.9597 6.28064C17.7872 6.15463 17.5405 6.02621 17.3047 5.93542C17.0015 5.81841 16.6843 5.77226 16.2859 5.72745C16.0943 5.70581 15.9034 5.68225 15.7179 5.73565L15.712 5.73749C15.6348 5.75958 15.6235 5.86277 15.6934 5.90001L15.6927 5.90065Z" fill="white"/>
<path d="M10.1216 25.9875L9.72267 25.0718C9.64018 24.8552 9.52398 24.5263 9.46065 24.2708L9.39005 23.8797C9.28485 23.3659 9.30152 22.89 9.30578 22.3594L9.30951 21.8791C9.30684 21.7991 9.26179 21.7028 9.19047 21.6244L8.20164 20.5309C8.11773 20.4381 8.01183 20.441 8.01573 20.5352L8.06576 21.6672C8.09237 22.2735 8.21761 22.9253 8.43617 23.599C8.51085 23.8286 8.64639 24.1314 8.79327 24.4051C8.98203 24.7571 9.22169 25.0878 9.53019 25.4969C9.67832 25.6936 9.82503 25.8905 10.0095 26.0445L10.0156 26.0491C10.0922 26.1133 10.1585 26.0734 10.1208 25.9872L10.1216 25.9875Z" fill="white"/>
<path d="M11.6514 3.39756C11.5661 3.4531 11.5828 3.58322 11.6798 3.61441L13.8636 4.32713L15.9709 5.05809C15.9959 5.06687 16.0231 5.06599 16.0477 5.05667C16.1278 5.02623 16.1455 4.92055 16.0791 4.86593L15.6956 4.54743C15.468 4.35857 15.2218 4.19268 14.9603 4.05369L14.9589 4.05367C14.2047 3.65074 13.3683 3.42551 12.5134 3.39511L11.7373 3.3672C11.7126 3.36683 11.688 3.37292 11.6672 3.38617L11.6514 3.39626V3.39756Z" fill="white"/>
<path d="M7.77176 15.43C7.79252 15.3717 7.73752 15.2981 7.67987 15.3075L6.37899 15.5116L5.10803 15.6828C5.09288 15.6848 5.08023 15.6933 5.07181 15.7061C5.04463 15.7476 5.07433 15.8166 5.12577 15.8303L5.42407 15.9112C5.60115 15.9589 5.77873 15.9876 5.95387 15.9954L5.95449 15.9951C6.46042 16.0192 6.94153 15.912 7.3609 15.6819L7.74178 15.4733C7.75366 15.4664 7.76324 15.4556 7.76839 15.4414L7.77229 15.4308L7.77176 15.43Z" fill="white"/>
<path d="M7.17432 24.4133C7.24847 24.4626 7.32582 24.4017 7.30293 24.3114L6.79486 22.279L6.33291 20.302C6.32741 20.2786 6.31464 20.2568 6.29761 20.2401C6.24226 20.1864 6.16539 20.2103 6.15934 20.2839L6.1225 20.7111C6.10082 20.9646 6.10235 21.2249 6.12821 21.4878L6.12876 21.4888C6.20206 22.2477 6.42782 23.0088 6.78883 23.7141L7.11631 24.3547C7.12695 24.3748 7.14185 24.3925 7.15977 24.4047L7.17343 24.4138L7.17432 24.4133Z" fill="white"/>
<path d="M7.79495 1.73496L9.53169 1.0849C9.62855 1.04825 9.73694 1.05699 9.82724 1.1081L11.4402 2.02022C11.5234 2.06734 11.4834 2.194 11.3878 2.18481L7.80772 1.83789C7.75148 1.83251 7.74173 1.75483 7.79441 1.7356L7.79495 1.73496Z" fill="white"/>
<path d="M5.85256 8.40399C6.17108 8.23246 6.78522 7.90517 7.2053 7.68156C7.48861 7.53081 7.7038 7.27759 7.80651 6.97356C7.83028 6.9035 7.90639 6.8659 7.97646 6.89022L9.91739 7.55664C10.2695 7.67761 10.613 7.82171 10.9465 7.98763L13.1015 9.06235L14.1688 9.60701C14.2438 9.64497 14.2591 9.74591 14.1988 9.80445L14.0506 9.94832C14.0159 9.98203 13.9641 9.99214 13.9192 9.97405L11.6352 9.04594C11.1505 8.84866 10.6435 8.71112 10.1258 8.63544L8.88244 8.4538C8.36674 8.37814 7.84501 8.35925 7.32505 8.39725L5.87951 8.50195C5.82453 8.50564 5.80241 8.43166 5.85125 8.4059L5.85256 8.40399Z" fill="white"/>
<path d="M11.1594 1.21095C11.6879 1.51486 12.6067 2.05465 13.2593 2.43859C13.7612 2.73434 14.3058 2.95062 14.8744 3.0794C15.5123 3.22345 16.1183 3.48394 16.6625 3.84687L18.5084 5.07841C18.5384 5.09824 18.5751 5.10527 18.6107 5.09677L18.7184 5.07126C18.8071 5.05065 18.8476 4.94724 18.797 4.87155L18.1527 3.90951C17.8935 3.52313 17.5889 3.1703 17.2434 2.85884L16.8259 2.48169C16.4232 2.11768 15.9249 1.87496 15.3895 1.78222L11.2148 1.05997C11.1252 1.04441 11.0814 1.1652 11.1601 1.21031L11.1594 1.21095Z" fill="white"/>
<path d="M17.6327 1.05342L20.1999 5.96798C20.2847 6.13078 20.4039 6.27277 20.5495 6.38416L21.3822 7.0228C21.7303 7.28971 22.0402 7.60321 22.3037 7.95413L22.8362 8.6638C22.8912 8.73763 22.9726 8.78732 23.0635 8.80291L23.9308 8.95237C23.9746 8.96014 24.0126 8.92261 24.0062 8.87858L23.9482 8.48425C23.8919 8.10547 23.7475 7.74474 23.5254 7.43255L22.8871 6.5333C22.6507 6.19959 22.3938 5.88043 22.1193 5.57715L19.5396 2.72906L17.9134 0.946551C17.8804 0.910521 17.8394 0.883414 17.7931 0.867199C17.6801 0.827373 17.5768 0.94726 17.632 1.0534L17.6327 1.05342Z" fill="white"/>
<path d="M21.6993 4.0068L22.9007 5.77125C22.9379 5.82609 23.0107 5.84399 23.0692 5.81257C23.1233 5.78367 23.1494 5.72077 23.1324 5.66171L22.9283 4.96607C22.9154 4.92259 22.9606 4.8845 23.0009 4.9045L23.5365 5.16586C23.564 5.1792 23.5963 5.1797 23.6237 5.1659L23.6523 5.15211C23.7194 5.12018 23.7291 5.02859 23.6709 4.98314L23.0435 4.48844C22.8219 4.31324 22.57 4.17957 22.3014 4.0941C22.1111 4.03371 21.8969 3.96587 21.7586 3.92436C21.7098 3.90941 21.6695 3.965 21.6979 4.00742L21.6993 4.0068Z" fill="white"/>
<path d="M24.2741 6.07435C24.221 6.03672 24.1516 6.09574 24.1832 6.15308C24.5045 6.73679 25.0209 7.60903 25.1446 7.93586C25.2061 8.09894 25.5435 8.98202 25.6748 9.35032C25.6964 9.41072 25.7685 9.43508 25.8228 9.40036L26.0294 9.26719C26.16 9.18259 26.2372 9.03646 26.2324 8.88071L26.2072 8.07664C26.2006 7.86658 26.1124 7.66756 25.9622 7.52122L25.1149 6.69502C25.0569 6.63859 24.9945 6.58659 24.9279 6.53906L24.2755 6.07436L24.2741 6.07435Z" fill="white"/>
<path d="M19.7866 2.20069L19.8265 2.29562C19.8402 2.32814 19.8663 2.35308 19.8998 2.36521L21.2592 2.86518C21.7038 3.0289 22.1262 3.2485 22.5156 3.51863L23.463 4.17709C23.9757 4.53373 24.4336 4.96252 24.8262 5.44849C25.123 5.81606 25.4529 6.20739 25.6797 6.47312C25.8688 6.69499 26.0435 6.92893 26.2039 7.17298L27.6632 9.39936C27.7049 9.46266 27.7701 9.50564 27.8441 9.51969L28.1315 9.57314C28.1741 9.58095 28.2057 9.53554 28.1844 9.49837L26.7465 7.00482C26.6206 6.7865 26.4836 6.57381 26.3369 6.36874L23.132 1.88253C22.9278 1.59581 22.641 1.37827 22.3101 1.25826L20.2425 0.505938C20.1945 0.488411 20.1411 0.51087 20.1203 0.557703C20.1022 0.597494 20.1132 0.644168 20.1471 0.671824L21.9314 2.15955C21.9786 2.19904 21.9457 2.27607 21.8838 2.26867L19.9197 2.02634C19.823 2.01455 19.7499 2.11164 19.7873 2.20135L19.7866 2.20069Z" fill="white"/>
<path d="M24.3434 2.32003L25.825 4.40013C26.0008 4.64698 26.1635 4.904 26.3115 5.16854L28.2121 8.57094C28.2361 8.61394 28.2861 8.63603 28.334 8.62512L28.4048 8.60876C28.4644 8.5948 28.5015 8.53528 28.4874 8.47564L28.0849 6.73879C27.952 6.16568 27.7674 5.60535 27.5339 5.06495L27.0659 3.98157C26.9884 3.80208 26.855 3.65276 26.6859 3.55588L24.4092 2.24738C24.3624 2.22019 24.3111 2.27626 24.3428 2.32067L24.3434 2.32003Z" fill="white"/>
<path d="M28.811 7.84184L28.9089 8.74714C28.9526 9.15286 28.885 9.56277 28.712 9.93283L28.4417 10.5122C28.4149 10.5692 28.4307 10.638 28.4798 10.6774L29.5839 11.5734C29.6317 11.6123 29.7039 11.5823 29.7101 11.5204L29.7785 10.7961C29.8263 10.2896 29.7674 9.77832 29.6061 9.29586L29.4677 8.88094C29.3657 8.57705 29.2254 8.28679 29.0505 8.01862L28.9116 7.80589C28.8807 7.75826 28.806 7.78491 28.8122 7.84122L28.811 7.84184Z" fill="white"/>
<path d="M42.9216 8.31517V19.5H40.0813V5.7883H45.3505C46.343 5.7883 47.2767 5.95807 48.1516 6.29759C49.0396 6.63712 49.8101 7.11377 50.463 7.72753C51.116 8.32823 51.6318 9.05299 52.0105 9.90181C52.4022 10.7376 52.5981 11.6647 52.5981 12.6833C52.5981 13.6889 52.4022 14.6095 52.0105 15.4453C51.6318 16.281 51.1094 16.9992 50.4434 17.6C49.7774 18.2007 49.007 18.6708 48.132 19.0103C47.2571 19.3368 46.3299 19.5 45.3505 19.5H43.901L44.6453 17.6C44.7367 17.378 44.8477 17.2278 44.9783 17.1494C45.122 17.058 45.3048 16.9992 45.5268 16.9731C45.801 16.934 46.0557 16.8948 46.2907 16.8556C46.5389 16.8164 46.7935 16.7446 47.0547 16.6401C47.8643 16.3006 48.5042 15.7783 48.9743 15.0731C49.4444 14.3548 49.6795 13.5583 49.6795 12.6833C49.6795 12.0696 49.5685 11.5015 49.3465 10.9792C49.1245 10.4438 48.8176 9.98016 48.4258 9.5884C48.0471 9.19664 47.5901 8.88976 47.0547 8.66776C46.5323 8.4327 45.9577 8.31517 45.3309 8.31517H42.9216ZM60.918 19.7155C59.9778 19.7155 59.1355 19.5718 58.3912 19.2845C57.6468 18.9972 57.0069 18.5924 56.4715 18.0701C55.9492 17.5347 55.5444 16.8882 55.2571 16.1308C54.9828 15.3734 54.8457 14.5311 54.8457 13.604V5.82748H57.686V13.604C57.686 14.1002 57.7578 14.5638 57.9015 14.9947C58.0451 15.4257 58.254 15.7978 58.5283 16.1113C58.8025 16.4247 59.142 16.6728 59.5469 16.8556C59.9517 17.0254 60.4153 17.1102 60.9376 17.1102C61.46 17.1102 61.917 17.0254 62.3088 16.8556C62.7136 16.6728 63.0531 16.4247 63.3274 16.1113C63.6016 15.7978 63.804 15.4257 63.9346 14.9947C64.0783 14.5638 64.1501 14.1002 64.1501 13.604V5.82748H66.0109C66.2721 5.82748 66.5007 5.92542 66.6965 6.1213C66.8924 6.31718 66.9904 6.54571 66.9904 6.80689V13.604C66.9904 14.5311 66.8467 15.3734 66.5594 16.1308C66.2852 16.8882 65.8804 17.5347 65.345 18.0701C64.8226 18.5924 64.1893 18.9972 63.4449 19.2845C62.7006 19.5718 61.8583 19.7155 60.918 19.7155ZM75.2948 19.7155C74.1848 19.7155 73.1009 19.5065 72.0432 19.0886C70.9854 18.6577 70.0452 18.0635 69.2225 17.3061C69.327 17.2017 69.4575 17.0645 69.6142 16.8948C69.771 16.725 69.9342 16.5618 70.104 16.4051C70.2737 16.2353 70.45 16.0917 70.6328 15.9741C70.8157 15.8566 70.9854 15.7978 71.1421 15.7978C71.2858 15.7978 71.4882 15.8762 71.7494 16.0329C72.0105 16.1765 72.3239 16.3463 72.6896 16.5422C73.0552 16.725 73.4731 16.8948 73.9432 17.0515C74.4133 17.1951 74.9292 17.267 75.4907 17.267C75.7649 17.267 76.0587 17.2408 76.3722 17.1886C76.6986 17.1364 77.0055 17.0515 77.2928 16.934C77.5801 16.8034 77.8151 16.6271 77.998 16.4051C78.1939 16.1831 78.2918 15.9023 78.2918 15.5628C78.2918 15.171 78.1677 14.8641 77.9196 14.6421C77.6715 14.4071 77.345 14.2308 76.9402 14.1133C76.5484 13.9827 76.0914 13.8847 75.569 13.8194C75.0597 13.7411 74.5374 13.6562 74.002 13.5648C73.4796 13.4734 72.9573 13.3559 72.4349 13.2122C71.9256 13.0686 71.4686 12.8596 71.0638 12.5854C70.672 12.2981 70.3521 11.9324 70.104 11.4885C69.8558 11.0445 69.7318 10.4829 69.7318 9.80387C69.7318 9.0334 69.8885 8.387 70.2019 7.86464C70.5284 7.32924 70.9462 6.8983 71.4555 6.57183C71.9648 6.2323 72.5394 5.99071 73.1793 5.84707C73.8322 5.69036 74.4852 5.61201 75.1381 5.61201C76.1306 5.61201 77.123 5.78177 78.1155 6.1213C79.121 6.46083 80.0155 6.95053 80.7991 7.59041C80.6815 7.70794 80.5444 7.85812 80.3877 8.04094C80.231 8.22376 80.0613 8.40005 79.8784 8.56982C79.7087 8.72652 79.5324 8.87017 79.3496 9.00076C79.1667 9.11829 78.9839 9.17705 78.8011 9.17705C78.6836 9.17705 78.5007 9.11829 78.2526 9.00076C78.0045 8.88323 77.7107 8.75917 77.3711 8.62858C77.0316 8.48494 76.6529 8.35435 76.235 8.23682C75.8302 8.11929 75.3993 8.06053 74.9422 8.06053C74.7072 8.06053 74.4395 8.08664 74.1391 8.13888C73.8518 8.17806 73.5776 8.25641 73.3164 8.37394C73.0683 8.47841 72.8593 8.62858 72.6896 8.82446C72.5198 9.02035 72.4349 9.27499 72.4349 9.5884C72.4349 9.95405 72.559 10.2413 72.8071 10.4503C73.0552 10.6592 73.3817 10.8225 73.7865 10.94C74.1913 11.0575 74.6484 11.1555 75.1577 11.2338C75.68 11.2991 76.2089 11.3775 76.7443 11.4689C77.2928 11.5603 77.8217 11.6843 78.331 11.841C78.8533 11.9847 79.3169 12.2002 79.7217 12.4874C80.1265 12.7747 80.453 13.1469 80.7011 13.604C80.9493 14.048 81.0733 14.616 81.0733 15.3081C81.0733 16.1047 80.897 16.7838 80.5444 17.3453C80.2049 17.9068 79.7609 18.3639 79.2124 18.7165C78.664 19.0691 78.0437 19.3237 77.3516 19.4804C76.6725 19.6371 75.9869 19.7155 75.2948 19.7155ZM89.5857 19.5H86.7455V8.29558H82.1227V5.7883H94.8354L94.091 7.66876C94.0257 7.85159 93.9082 8.00176 93.7384 8.11929C93.5687 8.23682 93.3858 8.29558 93.1899 8.29558H89.5857V19.5ZM108.151 19.7155C107.159 19.7155 106.219 19.5457 105.331 19.2062C104.443 18.8536 103.666 18.3639 103 17.7371C102.334 17.1102 101.805 16.3659 101.413 15.504C101.034 14.6421 100.845 13.7019 100.845 12.6833C100.845 11.6647 101.034 10.7245 101.413 9.86264C101.805 8.9877 102.334 8.23682 103 7.61C103.666 6.97012 104.443 6.47389 105.331 6.1213C106.219 5.76871 107.159 5.59242 108.151 5.59242C109.222 5.59242 110.26 5.81442 111.266 6.25842C112.272 6.68936 113.127 7.31618 113.832 8.13888C113.714 8.21723 113.558 8.32823 113.362 8.47188C113.179 8.61552 112.983 8.75917 112.774 8.90282C112.578 9.0334 112.383 9.15093 112.187 9.2554C111.991 9.35987 111.821 9.41211 111.677 9.41211C111.534 9.41211 111.357 9.35334 111.148 9.23581C110.953 9.10523 110.711 8.96158 110.424 8.80488C110.136 8.64817 109.803 8.51105 109.425 8.39352C109.059 8.26294 108.635 8.19764 108.151 8.19764C107.525 8.19764 106.944 8.31517 106.408 8.55023C105.873 8.78529 105.409 9.10523 105.017 9.51005C104.626 9.90181 104.319 10.3719 104.097 10.9204C103.875 11.4689 103.764 12.0565 103.764 12.6833C103.764 13.3101 103.875 13.8978 104.097 14.4463C104.332 14.9817 104.652 15.4453 105.057 15.837C105.461 16.2288 105.931 16.5422 106.467 16.7772C107.015 16.9992 107.603 17.1102 108.23 17.1102C108.7 17.1102 109.118 17.0515 109.483 16.934C109.849 16.8164 110.169 16.6858 110.443 16.5422C110.718 16.3855 110.953 16.2484 111.148 16.1308C111.357 16.0133 111.534 15.9545 111.677 15.9545C111.821 15.9545 111.984 16.0068 112.167 16.1113C112.363 16.2027 112.559 16.3202 112.755 16.4638C112.951 16.5944 113.14 16.7315 113.323 16.8752C113.506 17.0188 113.656 17.1298 113.773 17.2082C113.434 17.6 113.048 17.9525 112.618 18.2659C112.187 18.5794 111.723 18.8471 111.227 19.0691C110.744 19.278 110.241 19.4347 109.719 19.5392C109.196 19.6567 108.674 19.7155 108.151 19.7155ZM118.749 19.5H115.909V5.7883H117.77C118.031 5.7883 118.259 5.88624 118.455 6.08212C118.651 6.27801 118.749 6.50653 118.749 6.76771V19.5ZM128.073 19.5H125.233V8.29558H120.61V5.7883H133.323L132.579 7.66876C132.513 7.85159 132.396 8.00176 132.226 8.11929C132.056 8.23682 131.873 8.29558 131.678 8.29558H128.073V19.5ZM143.015 19.5H140.174V13.839L144.993 6.51306C145.137 6.29106 145.326 6.11477 145.561 5.98418C145.796 5.8536 146.051 5.7883 146.325 5.7883H148.695L143.015 14.3483V19.5ZM139.489 13.1143L134.631 5.7883H136.982C137.243 5.7883 137.491 5.8536 137.726 5.98418C137.974 6.11477 138.17 6.29106 138.314 6.51306L141.056 10.7049L139.489 13.1143Z" fill="#F5F7FA"/>
<path d="M44.5283 28.1121H38.9291V26.7234H45.4615L45.0393 27.7566C44.9949 27.8603 44.9245 27.9454 44.8282 28.0121C44.7393 28.0787 44.6394 28.1121 44.5283 28.1121ZM43.0396 31.2894H38.9291V29.934H43.9506L43.5506 30.9339C43.5062 31.0376 43.4358 31.1227 43.3396 31.1894C43.2507 31.256 43.1507 31.2894 43.0396 31.2894ZM44.5616 34.5H38.9291V33.1113H45.4615L45.0837 34.1334C45.0467 34.2445 44.98 34.3334 44.8838 34.4C44.7875 34.4667 44.6801 34.5 44.5616 34.5ZM51.7472 34.5H50.1919C50.0142 34.5 49.8475 34.4519 49.692 34.3556C49.5439 34.2519 49.4365 34.1149 49.3698 33.9445L46.4925 26.7234H48.2255L50.6696 32.8669L52.9137 27.29C52.9804 27.1196 53.0878 26.9826 53.2359 26.8789C53.3914 26.7752 53.5581 26.7234 53.7358 26.7234H54.8801L51.7472 34.5ZM59.3427 34.6222C58.7798 34.6222 58.2466 34.5222 57.7429 34.3222C57.2467 34.1149 56.8135 33.8334 56.4431 33.4779C56.0728 33.115 55.7766 32.6892 55.5544 32.2003C55.3396 31.7115 55.2322 31.182 55.2322 30.6117C55.2322 30.0414 55.3396 29.5119 55.5544 29.023C55.7766 28.5342 56.0728 28.1121 56.4431 27.7566C56.8135 27.3937 57.2467 27.1122 57.7429 26.9123C58.2466 26.7049 58.7798 26.6012 59.3427 26.6012C59.9056 26.6012 60.4351 26.7049 60.9314 26.9123C61.435 27.1122 61.872 27.3937 62.2423 27.7566C62.62 28.1121 62.9162 28.5342 63.131 29.023C63.3532 29.5119 63.4643 30.0414 63.4643 30.6117C63.4643 31.182 63.3532 31.7115 63.131 32.2003C62.9162 32.6892 62.62 33.115 62.2423 33.4779C61.872 33.8334 61.435 34.1149 60.9314 34.3222C60.4351 34.5222 59.9056 34.6222 59.3427 34.6222ZM59.3427 33.1446C59.7056 33.1446 60.0352 33.0817 60.3314 32.9558C60.6351 32.8225 60.8943 32.641 61.1091 32.4114C61.3313 32.1818 61.5016 31.9152 61.6201 31.6115C61.746 31.3005 61.809 30.9672 61.809 30.6117C61.809 30.2562 61.746 29.9266 61.6201 29.623C61.5016 29.3119 61.3313 29.0416 61.1091 28.812C60.8943 28.5824 60.6351 28.4046 60.3314 28.2787C60.0352 28.1454 59.7056 28.0787 59.3427 28.0787C58.9872 28.0787 58.6576 28.1454 58.354 28.2787C58.0503 28.412 57.7911 28.5935 57.5763 28.8231C57.3615 29.0453 57.1912 29.3119 57.0653 29.623C56.9468 29.9266 56.8875 30.2562 56.8875 30.6117C56.8875 30.9672 56.9468 31.3005 57.0653 31.6115C57.1912 31.9152 57.3615 32.1818 57.5763 32.4114C57.7911 32.6336 58.0503 32.8114 58.354 32.9447C58.6576 33.078 58.9872 33.1446 59.3427 33.1446ZM69.7926 34.5H64.86V26.7234H65.9154C66.0635 26.7234 66.1931 26.7789 66.3042 26.89C66.4153 27.0011 66.4709 27.1307 66.4709 27.2789V33.078H70.7258L70.3036 34.1445C70.2666 34.2482 70.2 34.3334 70.1037 34.4C70.0074 34.4667 69.9037 34.5 69.7926 34.5ZM74.4969 34.6222C73.9637 34.6222 73.486 34.5407 73.0638 34.3778C72.6417 34.2149 72.2787 33.9853 71.9751 33.689C71.6788 33.3854 71.4492 33.0187 71.2863 32.5892C71.1308 32.1596 71.053 31.6819 71.053 31.1561V26.7456H72.6639V31.1561C72.6639 31.4375 72.7046 31.7004 72.7861 31.9448C72.8675 32.1892 72.9861 32.4003 73.1416 32.5781C73.2971 32.7558 73.4897 32.8965 73.7193 33.0002C73.9489 33.0965 74.2118 33.1446 74.508 33.1446C74.8043 33.1446 75.0635 33.0965 75.2857 33.0002C75.5153 32.8965 75.7079 32.7558 75.8634 32.5781C76.0189 32.4003 76.1337 32.1892 76.2078 31.9448C76.2893 31.7004 76.33 31.4375 76.33 31.1561V26.7456H77.3854C77.5335 26.7456 77.6631 26.8012 77.7742 26.9123C77.8853 27.0233 77.9409 27.153 77.9409 27.3011V31.1561C77.9409 31.6819 77.8594 32.1596 77.6965 32.5892C77.5409 33.0187 77.3113 33.3854 77.0077 33.689C76.7114 33.9853 76.3522 34.2149 75.9301 34.3778C75.5079 34.5407 75.0302 34.6222 74.4969 34.6222ZM83.1507 34.5H81.5398V28.1454H78.918V26.7234H86.128L85.7058 27.7899C85.6688 27.8936 85.6022 27.9788 85.5059 28.0454C85.4096 28.1121 85.3059 28.1454 85.1948 28.1454H83.1507V34.5ZM88.7006 34.5H87.0897V26.7234H88.1451C88.2933 26.7234 88.4229 26.7789 88.534 26.89C88.6451 27.0011 88.7006 27.1307 88.7006 27.2789V34.5ZM94.2333 34.6222C93.6704 34.6222 93.1372 34.5222 92.6335 34.3222C92.1373 34.1149 91.704 33.8334 91.3337 33.4779C90.9634 33.115 90.6672 32.6892 90.445 32.2003C90.2302 31.7115 90.1228 31.182 90.1228 30.6117C90.1228 30.0414 90.2302 29.5119 90.445 29.023C90.6672 28.5342 90.9634 28.1121 91.3337 27.7566C91.704 27.3937 92.1373 27.1122 92.6335 26.9123C93.1372 26.7049 93.6704 26.6012 94.2333 26.6012C94.7962 26.6012 95.3257 26.7049 95.8219 26.9123C96.3256 27.1122 96.7625 27.3937 97.1329 27.7566C97.5106 28.1121 97.8068 28.5342 98.0216 29.023C98.2438 29.5119 98.3549 30.0414 98.3549 30.6117C98.3549 31.182 98.2438 31.7115 98.0216 32.2003C97.8068 32.6892 97.5106 33.115 97.1329 33.4779C96.7625 33.8334 96.3256 34.1149 95.8219 34.3222C95.3257 34.5222 94.7962 34.6222 94.2333 34.6222ZM94.2333 33.1446C94.5962 33.1446 94.9258 33.0817 95.222 32.9558C95.5257 32.8225 95.7849 32.641 95.9997 32.4114C96.2219 32.1818 96.3922 31.9152 96.5107 31.6115C96.6366 31.3005 96.6996 30.9672 96.6996 30.6117C96.6996 30.2562 96.6366 29.9266 96.5107 29.623C96.3922 29.3119 96.2219 29.0416 95.9997 28.812C95.7849 28.5824 95.5257 28.4046 95.222 28.2787C94.9258 28.1454 94.5962 28.0787 94.2333 28.0787C93.8778 28.0787 93.5482 28.1454 93.2446 28.2787C92.9409 28.412 92.6817 28.5935 92.4669 28.8231C92.2521 29.0453 92.0818 29.3119 91.9559 29.623C91.8374 29.9266 91.7781 30.2562 91.7781 30.6117C91.7781 30.9672 91.8374 31.3005 91.9559 31.6115C92.0818 31.9152 92.2521 32.1818 92.4669 32.4114C92.6817 32.6336 92.9409 32.8114 93.2446 32.9447C93.5482 33.078 93.8778 33.1446 94.2333 33.1446ZM106.75 33.5779L105.139 31.3894V26.7234H106.75V33.5779ZM106.75 34.5H105.483C105.357 34.5 105.228 34.4704 105.094 34.4111C104.961 34.3519 104.854 34.2667 104.772 34.1556L101.361 29.3008V34.5H99.7506V26.7234H100.85C100.976 26.7234 101.106 26.753 101.239 26.8123C101.373 26.8715 101.476 26.9567 101.55 27.0678C102.084 27.8529 102.609 28.6416 103.128 29.4341C103.654 30.2192 104.194 30.9931 104.75 31.756C105.083 32.2226 105.416 32.6818 105.75 33.1335C106.083 33.5853 106.416 34.0408 106.75 34.5Z" fill="#F5F7FA"/>
</svg>
